<mxfile host="app.diagrams.net" agent="Mozilla/5.0 (Windows NT 10.0; Win64; x64) AppleWebKit/537.36 (KHTML, like Gecko) Chrome/134.0.0.0 YaBrowser/25.4.0.0 Safari/537.36" version="26.2.14">
  <diagram name="Страница — 1" id="_uF8TN9GkoOc7FYhAQVd">
    <mxGraphModel dx="1138" dy="1290" grid="1" gridSize="10" guides="1" tooltips="1" connect="1" arrows="1" fold="1" page="1" pageScale="1" pageWidth="827" pageHeight="1169" math="0" shadow="0">
      <root>
        <mxCell id="0" />
        <mxCell id="1" parent="0" />
        <object label="Roles" уацуа="" id="4VEDjEmkF4Wl-3KHhdz3-2">
          <mxCell style="shape=table;startSize=30;container=1;collapsible=0;childLayout=tableLayout;fixedRows=1;rowLines=0;fontStyle=0;fontSize=16;strokeColor=light-dark(#000000,#990000);" parent="1" vertex="1">
            <mxGeometry x="80" y="50" width="200" height="90" as="geometry" />
          </mxCell>
        </object>
        <mxCell id="4VEDjEmkF4Wl-3KHhdz3-3" value="" style="shape=tableRow;horizontal=0;startSize=0;swimlaneHead=0;swimlaneBody=0;top=0;left=0;bottom=0;right=0;collapsible=0;dropTarget=0;points=[[0,0.5],[1,0.5]];portConstraint=eastwest;fontSize=16;strokeColor=light-dark(#000000,#990000);" parent="4VEDjEmkF4Wl-3KHhdz3-2" vertex="1">
          <mxGeometry y="30" width="200" height="30" as="geometry" />
        </mxCell>
        <mxCell id="4VEDjEmkF4Wl-3KHhdz3-4" value="&lt;font style=&quot;font-size: 14px;&quot;&gt;PK&lt;/font&gt;" style="shape=partialRectangle;html=1;whiteSpace=wrap;connectable=0;top=0;left=0;bottom=0;right=0;overflow=hidden;pointerEvents=1;fontSize=16;strokeColor=light-dark(#000000,#990000);" parent="4VEDjEmkF4Wl-3KHhdz3-3" vertex="1">
          <mxGeometry width="40" height="30" as="geometry">
            <mxRectangle width="40" height="30" as="alternateBounds" />
          </mxGeometry>
        </mxCell>
        <mxCell id="4VEDjEmkF4Wl-3KHhdz3-5" value="&lt;font style=&quot;font-size: 14px;&quot;&gt;role_id: &lt;b&gt;INTEGER&lt;/b&gt;&lt;/font&gt;" style="shape=partialRectangle;html=1;whiteSpace=wrap;connectable=0;top=0;left=0;bottom=0;right=0;align=left;spacingLeft=6;overflow=hidden;fontSize=16;strokeColor=light-dark(#000000,#990000);" parent="4VEDjEmkF4Wl-3KHhdz3-3" vertex="1">
          <mxGeometry x="40" width="160" height="30" as="geometry">
            <mxRectangle width="160" height="30" as="alternateBounds" />
          </mxGeometry>
        </mxCell>
        <mxCell id="4VEDjEmkF4Wl-3KHhdz3-6" value="" style="shape=tableRow;horizontal=0;startSize=0;swimlaneHead=0;swimlaneBody=0;top=0;left=0;bottom=0;right=0;collapsible=0;dropTarget=0;points=[[0,0.5],[1,0.5]];portConstraint=eastwest;fontSize=16;strokeColor=light-dark(#000000,#990000);" parent="4VEDjEmkF4Wl-3KHhdz3-2" vertex="1">
          <mxGeometry y="60" width="200" height="30" as="geometry" />
        </mxCell>
        <mxCell id="4VEDjEmkF4Wl-3KHhdz3-7" value="" style="shape=partialRectangle;html=1;whiteSpace=wrap;connectable=0;top=0;left=0;bottom=0;right=0;overflow=hidden;pointerEvents=1;fontSize=16;strokeColor=light-dark(#000000,#990000);" parent="4VEDjEmkF4Wl-3KHhdz3-6" vertex="1">
          <mxGeometry width="40" height="30" as="geometry">
            <mxRectangle width="40" height="30" as="alternateBounds" />
          </mxGeometry>
        </mxCell>
        <mxCell id="4VEDjEmkF4Wl-3KHhdz3-8" value="&lt;font style=&quot;font-size: 14px;&quot;&gt;role_name: &lt;b style=&quot;&quot;&gt;VARCHAR&lt;/b&gt;&lt;/font&gt;" style="shape=partialRectangle;html=1;whiteSpace=wrap;connectable=0;top=0;left=0;bottom=0;right=0;align=left;spacingLeft=6;overflow=hidden;fontSize=16;strokeColor=light-dark(#000000,#990000);" parent="4VEDjEmkF4Wl-3KHhdz3-6" vertex="1">
          <mxGeometry x="40" width="160" height="30" as="geometry">
            <mxRectangle width="160" height="30" as="alternateBounds" />
          </mxGeometry>
        </mxCell>
        <object label="Users" уацуа="" id="4VEDjEmkF4Wl-3KHhdz3-12">
          <mxCell style="shape=table;startSize=30;container=1;collapsible=0;childLayout=tableLayout;fixedRows=1;rowLines=0;fontStyle=0;fontSize=16;strokeColor=light-dark(#000000,#990000);" parent="1" vertex="1">
            <mxGeometry x="50" y="210" width="260" height="300" as="geometry" />
          </mxCell>
        </object>
        <mxCell id="4VEDjEmkF4Wl-3KHhdz3-13" value="" style="shape=tableRow;horizontal=0;startSize=0;swimlaneHead=0;swimlaneBody=0;top=0;left=0;bottom=0;right=0;collapsible=0;dropTarget=0;points=[[0,0.5],[1,0.5]];portConstraint=eastwest;fontSize=16;strokeColor=light-dark(#000000,#990000);" parent="4VEDjEmkF4Wl-3KHhdz3-12" vertex="1">
          <mxGeometry y="30" width="260" height="30" as="geometry" />
        </mxCell>
        <mxCell id="4VEDjEmkF4Wl-3KHhdz3-14" value="&lt;font style=&quot;font-size: 14px;&quot;&gt;PK&lt;/font&gt;" style="shape=partialRectangle;html=1;whiteSpace=wrap;connectable=0;top=0;left=0;bottom=0;right=0;overflow=hidden;pointerEvents=1;fontSize=16;strokeColor=light-dark(#000000,#990000);" parent="4VEDjEmkF4Wl-3KHhdz3-13" vertex="1">
          <mxGeometry width="52" height="30" as="geometry">
            <mxRectangle width="52" height="30" as="alternateBounds" />
          </mxGeometry>
        </mxCell>
        <mxCell id="4VEDjEmkF4Wl-3KHhdz3-15" value="&lt;font style=&quot;font-size: 14px;&quot;&gt;user_id: &lt;b&gt;INTEGER&lt;/b&gt;&lt;/font&gt;" style="shape=partialRectangle;html=1;whiteSpace=wrap;connectable=0;top=0;left=0;bottom=0;right=0;align=left;spacingLeft=6;overflow=hidden;fontSize=16;strokeColor=light-dark(#000000,#990000);" parent="4VEDjEmkF4Wl-3KHhdz3-13" vertex="1">
          <mxGeometry x="52" width="208" height="30" as="geometry">
            <mxRectangle width="208" height="30" as="alternateBounds" />
          </mxGeometry>
        </mxCell>
        <mxCell id="4VEDjEmkF4Wl-3KHhdz3-16" value="" style="shape=tableRow;horizontal=0;startSize=0;swimlaneHead=0;swimlaneBody=0;top=0;left=0;bottom=0;right=0;collapsible=0;dropTarget=0;points=[[0,0.5],[1,0.5]];portConstraint=eastwest;fontSize=16;strokeColor=light-dark(#000000,#990000);" parent="4VEDjEmkF4Wl-3KHhdz3-12" vertex="1">
          <mxGeometry y="60" width="260" height="30" as="geometry" />
        </mxCell>
        <mxCell id="4VEDjEmkF4Wl-3KHhdz3-17" value="&lt;font style=&quot;font-size: 14px;&quot;&gt;FK&lt;/font&gt;" style="shape=partialRectangle;html=1;whiteSpace=wrap;connectable=0;top=0;left=0;bottom=0;right=0;overflow=hidden;pointerEvents=1;fontSize=16;strokeColor=light-dark(#000000,#990000);" parent="4VEDjEmkF4Wl-3KHhdz3-16" vertex="1">
          <mxGeometry width="52" height="30" as="geometry">
            <mxRectangle width="52" height="30" as="alternateBounds" />
          </mxGeometry>
        </mxCell>
        <mxCell id="4VEDjEmkF4Wl-3KHhdz3-18" value="&lt;font style=&quot;font-size: 14px;&quot;&gt;role_id: &lt;b style=&quot;&quot;&gt;INTEGER&lt;/b&gt;&lt;/font&gt;" style="shape=partialRectangle;html=1;whiteSpace=wrap;connectable=0;top=0;left=0;bottom=0;right=0;align=left;spacingLeft=6;overflow=hidden;fontSize=16;strokeColor=light-dark(#000000,#990000);" parent="4VEDjEmkF4Wl-3KHhdz3-16" vertex="1">
          <mxGeometry x="52" width="208" height="30" as="geometry">
            <mxRectangle width="208" height="30" as="alternateBounds" />
          </mxGeometry>
        </mxCell>
        <mxCell id="4VEDjEmkF4Wl-3KHhdz3-19" value="" style="shape=tableRow;horizontal=0;startSize=0;swimlaneHead=0;swimlaneBody=0;top=0;left=0;bottom=0;right=0;collapsible=0;dropTarget=0;points=[[0,0.5],[1,0.5]];portConstraint=eastwest;fontSize=16;strokeColor=light-dark(#000000,#990000);" parent="4VEDjEmkF4Wl-3KHhdz3-12" vertex="1">
          <mxGeometry y="90" width="260" height="30" as="geometry" />
        </mxCell>
        <mxCell id="4VEDjEmkF4Wl-3KHhdz3-20" value="" style="shape=partialRectangle;html=1;whiteSpace=wrap;connectable=0;top=0;left=0;bottom=0;right=0;overflow=hidden;pointerEvents=1;fontSize=16;strokeColor=light-dark(#000000,#990000);" parent="4VEDjEmkF4Wl-3KHhdz3-19" vertex="1">
          <mxGeometry width="52" height="30" as="geometry">
            <mxRectangle width="52" height="30" as="alternateBounds" />
          </mxGeometry>
        </mxCell>
        <mxCell id="4VEDjEmkF4Wl-3KHhdz3-21" value="&lt;font style=&quot;font-size: 14px;&quot;&gt;first_name: &lt;b&gt;VARCHAR&lt;/b&gt;&lt;/font&gt;" style="shape=partialRectangle;html=1;whiteSpace=wrap;connectable=0;top=0;left=0;bottom=0;right=0;align=left;spacingLeft=6;overflow=hidden;fontSize=16;strokeColor=light-dark(#000000,#990000);" parent="4VEDjEmkF4Wl-3KHhdz3-19" vertex="1">
          <mxGeometry x="52" width="208" height="30" as="geometry">
            <mxRectangle width="208" height="30" as="alternateBounds" />
          </mxGeometry>
        </mxCell>
        <mxCell id="4VEDjEmkF4Wl-3KHhdz3-22" value="" style="shape=tableRow;horizontal=0;startSize=0;swimlaneHead=0;swimlaneBody=0;top=0;left=0;bottom=0;right=0;collapsible=0;dropTarget=0;points=[[0,0.5],[1,0.5]];portConstraint=eastwest;fontSize=16;strokeColor=light-dark(#000000,#990000);" parent="4VEDjEmkF4Wl-3KHhdz3-12" vertex="1">
          <mxGeometry y="120" width="260" height="30" as="geometry" />
        </mxCell>
        <mxCell id="4VEDjEmkF4Wl-3KHhdz3-23" value="" style="shape=partialRectangle;html=1;whiteSpace=wrap;connectable=0;top=0;left=0;bottom=0;right=0;overflow=hidden;pointerEvents=1;fontSize=16;strokeColor=light-dark(#000000,#990000);" parent="4VEDjEmkF4Wl-3KHhdz3-22" vertex="1">
          <mxGeometry width="52" height="30" as="geometry">
            <mxRectangle width="52" height="30" as="alternateBounds" />
          </mxGeometry>
        </mxCell>
        <mxCell id="4VEDjEmkF4Wl-3KHhdz3-24" value="&lt;font style=&quot;font-size: 14px;&quot;&gt;last_name: &lt;b&gt;VARCHAR&lt;/b&gt;&lt;/font&gt;" style="shape=partialRectangle;html=1;whiteSpace=wrap;connectable=0;top=0;left=0;bottom=0;right=0;align=left;spacingLeft=6;overflow=hidden;fontSize=16;strokeColor=light-dark(#000000,#990000);" parent="4VEDjEmkF4Wl-3KHhdz3-22" vertex="1">
          <mxGeometry x="52" width="208" height="30" as="geometry">
            <mxRectangle width="208" height="30" as="alternateBounds" />
          </mxGeometry>
        </mxCell>
        <mxCell id="4VEDjEmkF4Wl-3KHhdz3-25" value="" style="shape=tableRow;horizontal=0;startSize=0;swimlaneHead=0;swimlaneBody=0;top=0;left=0;bottom=0;right=0;collapsible=0;dropTarget=0;points=[[0,0.5],[1,0.5]];portConstraint=eastwest;fontSize=16;strokeColor=light-dark(#000000,#990000);" parent="4VEDjEmkF4Wl-3KHhdz3-12" vertex="1">
          <mxGeometry y="150" width="260" height="30" as="geometry" />
        </mxCell>
        <mxCell id="4VEDjEmkF4Wl-3KHhdz3-26" value="" style="shape=partialRectangle;html=1;whiteSpace=wrap;connectable=0;top=0;left=0;bottom=0;right=0;overflow=hidden;pointerEvents=1;fontSize=16;strokeColor=light-dark(#000000,#990000);" parent="4VEDjEmkF4Wl-3KHhdz3-25" vertex="1">
          <mxGeometry width="52" height="30" as="geometry">
            <mxRectangle width="52" height="30" as="alternateBounds" />
          </mxGeometry>
        </mxCell>
        <mxCell id="4VEDjEmkF4Wl-3KHhdz3-27" value="&lt;font style=&quot;font-size: 14px;&quot;&gt;email: &lt;b&gt;VARCHAR&lt;/b&gt;&lt;/font&gt;" style="shape=partialRectangle;html=1;whiteSpace=wrap;connectable=0;top=0;left=0;bottom=0;right=0;align=left;spacingLeft=6;overflow=hidden;fontSize=16;strokeColor=light-dark(#000000,#990000);" parent="4VEDjEmkF4Wl-3KHhdz3-25" vertex="1">
          <mxGeometry x="52" width="208" height="30" as="geometry">
            <mxRectangle width="208" height="30" as="alternateBounds" />
          </mxGeometry>
        </mxCell>
        <mxCell id="4VEDjEmkF4Wl-3KHhdz3-28" value="" style="shape=tableRow;horizontal=0;startSize=0;swimlaneHead=0;swimlaneBody=0;top=0;left=0;bottom=0;right=0;collapsible=0;dropTarget=0;points=[[0,0.5],[1,0.5]];portConstraint=eastwest;fontSize=16;strokeColor=light-dark(#000000,#990000);" parent="4VEDjEmkF4Wl-3KHhdz3-12" vertex="1">
          <mxGeometry y="180" width="260" height="30" as="geometry" />
        </mxCell>
        <mxCell id="4VEDjEmkF4Wl-3KHhdz3-29" value="" style="shape=partialRectangle;html=1;whiteSpace=wrap;connectable=0;top=0;left=0;bottom=0;right=0;overflow=hidden;pointerEvents=1;fontSize=16;strokeColor=light-dark(#000000,#990000);" parent="4VEDjEmkF4Wl-3KHhdz3-28" vertex="1">
          <mxGeometry width="52" height="30" as="geometry">
            <mxRectangle width="52" height="30" as="alternateBounds" />
          </mxGeometry>
        </mxCell>
        <mxCell id="4VEDjEmkF4Wl-3KHhdz3-30" value="&lt;font style=&quot;font-size: 14px;&quot;&gt;phone: &lt;b&gt;VARCHAR&lt;/b&gt;&lt;/font&gt;" style="shape=partialRectangle;html=1;whiteSpace=wrap;connectable=0;top=0;left=0;bottom=0;right=0;align=left;spacingLeft=6;overflow=hidden;fontSize=16;strokeColor=light-dark(#000000,#990000);" parent="4VEDjEmkF4Wl-3KHhdz3-28" vertex="1">
          <mxGeometry x="52" width="208" height="30" as="geometry">
            <mxRectangle width="208" height="30" as="alternateBounds" />
          </mxGeometry>
        </mxCell>
        <mxCell id="4VEDjEmkF4Wl-3KHhdz3-31" value="" style="shape=tableRow;horizontal=0;startSize=0;swimlaneHead=0;swimlaneBody=0;top=0;left=0;bottom=0;right=0;collapsible=0;dropTarget=0;points=[[0,0.5],[1,0.5]];portConstraint=eastwest;fontSize=16;strokeColor=light-dark(#000000,#990000);" parent="4VEDjEmkF4Wl-3KHhdz3-12" vertex="1">
          <mxGeometry y="210" width="260" height="30" as="geometry" />
        </mxCell>
        <mxCell id="4VEDjEmkF4Wl-3KHhdz3-32" value="" style="shape=partialRectangle;html=1;whiteSpace=wrap;connectable=0;top=0;left=0;bottom=0;right=0;overflow=hidden;pointerEvents=1;fontSize=16;strokeColor=light-dark(#000000,#990000);" parent="4VEDjEmkF4Wl-3KHhdz3-31" vertex="1">
          <mxGeometry width="52" height="30" as="geometry">
            <mxRectangle width="52" height="30" as="alternateBounds" />
          </mxGeometry>
        </mxCell>
        <mxCell id="4VEDjEmkF4Wl-3KHhdz3-33" value="&lt;font style=&quot;font-size: 14px;&quot;&gt;password_hash: &lt;b&gt;VARCHAR&lt;/b&gt;&lt;/font&gt;" style="shape=partialRectangle;html=1;whiteSpace=wrap;connectable=0;top=0;left=0;bottom=0;right=0;align=left;spacingLeft=6;overflow=hidden;fontSize=16;strokeColor=light-dark(#000000,#990000);" parent="4VEDjEmkF4Wl-3KHhdz3-31" vertex="1">
          <mxGeometry x="52" width="208" height="30" as="geometry">
            <mxRectangle width="208" height="30" as="alternateBounds" />
          </mxGeometry>
        </mxCell>
        <mxCell id="4VEDjEmkF4Wl-3KHhdz3-35" value="" style="shape=tableRow;horizontal=0;startSize=0;swimlaneHead=0;swimlaneBody=0;top=0;left=0;bottom=0;right=0;collapsible=0;dropTarget=0;points=[[0,0.5],[1,0.5]];portConstraint=eastwest;fontSize=16;strokeColor=light-dark(#000000,#990000);" parent="4VEDjEmkF4Wl-3KHhdz3-12" vertex="1">
          <mxGeometry y="240" width="260" height="30" as="geometry" />
        </mxCell>
        <mxCell id="4VEDjEmkF4Wl-3KHhdz3-36" value="" style="shape=partialRectangle;html=1;whiteSpace=wrap;connectable=0;top=0;left=0;bottom=0;right=0;overflow=hidden;pointerEvents=1;fontSize=16;strokeColor=light-dark(#000000,#990000);" parent="4VEDjEmkF4Wl-3KHhdz3-35" vertex="1">
          <mxGeometry width="52" height="30" as="geometry">
            <mxRectangle width="52" height="30" as="alternateBounds" />
          </mxGeometry>
        </mxCell>
        <mxCell id="4VEDjEmkF4Wl-3KHhdz3-37" value="&lt;font style=&quot;font-size: 14px;&quot;&gt;profile_picture_url: &lt;b&gt;TEXT&lt;/b&gt;&lt;/font&gt;" style="shape=partialRectangle;html=1;whiteSpace=wrap;connectable=0;top=0;left=0;bottom=0;right=0;align=left;spacingLeft=6;overflow=hidden;fontSize=16;strokeColor=light-dark(#000000,#990000);" parent="4VEDjEmkF4Wl-3KHhdz3-35" vertex="1">
          <mxGeometry x="52" width="208" height="30" as="geometry">
            <mxRectangle width="208" height="30" as="alternateBounds" />
          </mxGeometry>
        </mxCell>
        <mxCell id="4VEDjEmkF4Wl-3KHhdz3-38" value="" style="shape=tableRow;horizontal=0;startSize=0;swimlaneHead=0;swimlaneBody=0;top=0;left=0;bottom=0;right=0;collapsible=0;dropTarget=0;points=[[0,0.5],[1,0.5]];portConstraint=eastwest;fontSize=16;strokeColor=light-dark(#000000,#990000);" parent="4VEDjEmkF4Wl-3KHhdz3-12" vertex="1">
          <mxGeometry y="270" width="260" height="30" as="geometry" />
        </mxCell>
        <mxCell id="4VEDjEmkF4Wl-3KHhdz3-39" value="" style="shape=partialRectangle;html=1;whiteSpace=wrap;connectable=0;top=0;left=0;bottom=0;right=0;overflow=hidden;pointerEvents=1;fontSize=16;strokeColor=light-dark(#000000,#990000);" parent="4VEDjEmkF4Wl-3KHhdz3-38" vertex="1">
          <mxGeometry width="52" height="30" as="geometry">
            <mxRectangle width="52" height="30" as="alternateBounds" />
          </mxGeometry>
        </mxCell>
        <mxCell id="4VEDjEmkF4Wl-3KHhdz3-40" value="&lt;span style=&quot;font-size: 14px;&quot;&gt;registration_ts: &lt;b&gt;TIMESTAMPTZ&lt;/b&gt;&lt;/span&gt;" style="shape=partialRectangle;html=1;whiteSpace=wrap;connectable=0;top=0;left=0;bottom=0;right=0;align=left;spacingLeft=6;overflow=hidden;fontSize=16;strokeColor=light-dark(#000000,#990000);" parent="4VEDjEmkF4Wl-3KHhdz3-38" vertex="1">
          <mxGeometry x="52" width="208" height="30" as="geometry">
            <mxRectangle width="208" height="30" as="alternateBounds" />
          </mxGeometry>
        </mxCell>
        <object label="Products" уацуа="" id="4VEDjEmkF4Wl-3KHhdz3-44">
          <mxCell style="shape=table;startSize=30;container=1;collapsible=0;childLayout=tableLayout;fixedRows=1;rowLines=0;fontStyle=0;strokeColor=light-dark(#000000,#994C00);fontSize=16;" parent="1" vertex="1">
            <mxGeometry x="430" y="365" width="240" height="300" as="geometry" />
          </mxCell>
        </object>
        <mxCell id="4VEDjEmkF4Wl-3KHhdz3-45" value="" style="shape=tableRow;horizontal=0;startSize=0;swimlaneHead=0;swimlaneBody=0;top=0;left=0;bottom=0;right=0;collapsible=0;dropTarget=0;fillColor=none;points=[[0,0.5],[1,0.5]];portConstraint=eastwest;strokeColor=inherit;fontSize=16;" parent="4VEDjEmkF4Wl-3KHhdz3-44" vertex="1">
          <mxGeometry y="30" width="240" height="30" as="geometry" />
        </mxCell>
        <mxCell id="4VEDjEmkF4Wl-3KHhdz3-46" value="&lt;font style=&quot;font-size: 14px;&quot;&gt;PK&lt;/font&gt;" style="shape=partialRectangle;html=1;whiteSpace=wrap;connectable=0;fillColor=none;top=0;left=0;bottom=0;right=0;overflow=hidden;pointerEvents=1;strokeColor=inherit;fontSize=16;" parent="4VEDjEmkF4Wl-3KHhdz3-45" vertex="1">
          <mxGeometry width="48" height="30" as="geometry">
            <mxRectangle width="48" height="30" as="alternateBounds" />
          </mxGeometry>
        </mxCell>
        <mxCell id="4VEDjEmkF4Wl-3KHhdz3-47" value="&lt;font style=&quot;font-size: 14px;&quot;&gt;product_id: &lt;b&gt;INTEGER&lt;/b&gt;&lt;/font&gt;" style="shape=partialRectangle;html=1;whiteSpace=wrap;connectable=0;fillColor=none;top=0;left=0;bottom=0;right=0;align=left;spacingLeft=6;overflow=hidden;strokeColor=inherit;fontSize=16;" parent="4VEDjEmkF4Wl-3KHhdz3-45" vertex="1">
          <mxGeometry x="48" width="192" height="30" as="geometry">
            <mxRectangle width="192" height="30" as="alternateBounds" />
          </mxGeometry>
        </mxCell>
        <mxCell id="4VEDjEmkF4Wl-3KHhdz3-51" value="" style="shape=tableRow;horizontal=0;startSize=0;swimlaneHead=0;swimlaneBody=0;top=0;left=0;bottom=0;right=0;collapsible=0;dropTarget=0;fillColor=none;points=[[0,0.5],[1,0.5]];portConstraint=eastwest;strokeColor=inherit;fontSize=16;" parent="4VEDjEmkF4Wl-3KHhdz3-44" vertex="1">
          <mxGeometry y="60" width="240" height="30" as="geometry" />
        </mxCell>
        <mxCell id="4VEDjEmkF4Wl-3KHhdz3-52" value="" style="shape=partialRectangle;html=1;whiteSpace=wrap;connectable=0;fillColor=none;top=0;left=0;bottom=0;right=0;overflow=hidden;pointerEvents=1;strokeColor=inherit;fontSize=16;" parent="4VEDjEmkF4Wl-3KHhdz3-51" vertex="1">
          <mxGeometry width="48" height="30" as="geometry">
            <mxRectangle width="48" height="30" as="alternateBounds" />
          </mxGeometry>
        </mxCell>
        <mxCell id="4VEDjEmkF4Wl-3KHhdz3-53" value="&lt;font style=&quot;font-size: 14px;&quot;&gt;name: &lt;b&gt;VARCHAR&lt;/b&gt;&lt;/font&gt;" style="shape=partialRectangle;html=1;whiteSpace=wrap;connectable=0;fillColor=none;top=0;left=0;bottom=0;right=0;align=left;spacingLeft=6;overflow=hidden;strokeColor=inherit;fontSize=16;" parent="4VEDjEmkF4Wl-3KHhdz3-51" vertex="1">
          <mxGeometry x="48" width="192" height="30" as="geometry">
            <mxRectangle width="192" height="30" as="alternateBounds" />
          </mxGeometry>
        </mxCell>
        <mxCell id="4VEDjEmkF4Wl-3KHhdz3-54" value="" style="shape=tableRow;horizontal=0;startSize=0;swimlaneHead=0;swimlaneBody=0;top=0;left=0;bottom=0;right=0;collapsible=0;dropTarget=0;fillColor=none;points=[[0,0.5],[1,0.5]];portConstraint=eastwest;strokeColor=inherit;fontSize=16;" parent="4VEDjEmkF4Wl-3KHhdz3-44" vertex="1">
          <mxGeometry y="90" width="240" height="30" as="geometry" />
        </mxCell>
        <mxCell id="4VEDjEmkF4Wl-3KHhdz3-55" value="" style="shape=partialRectangle;html=1;whiteSpace=wrap;connectable=0;fillColor=none;top=0;left=0;bottom=0;right=0;overflow=hidden;pointerEvents=1;strokeColor=inherit;fontSize=16;" parent="4VEDjEmkF4Wl-3KHhdz3-54" vertex="1">
          <mxGeometry width="48" height="30" as="geometry">
            <mxRectangle width="48" height="30" as="alternateBounds" />
          </mxGeometry>
        </mxCell>
        <mxCell id="4VEDjEmkF4Wl-3KHhdz3-56" value="&lt;font style=&quot;font-size: 14px;&quot;&gt;price: &lt;b&gt;MONEY&lt;/b&gt;&lt;/font&gt;" style="shape=partialRectangle;html=1;whiteSpace=wrap;connectable=0;fillColor=none;top=0;left=0;bottom=0;right=0;align=left;spacingLeft=6;overflow=hidden;strokeColor=inherit;fontSize=16;" parent="4VEDjEmkF4Wl-3KHhdz3-54" vertex="1">
          <mxGeometry x="48" width="192" height="30" as="geometry">
            <mxRectangle width="192" height="30" as="alternateBounds" />
          </mxGeometry>
        </mxCell>
        <mxCell id="Xww3v0tDHA8YOL_0oZIG-1" value="" style="shape=tableRow;horizontal=0;startSize=0;swimlaneHead=0;swimlaneBody=0;top=0;left=0;bottom=0;right=0;collapsible=0;dropTarget=0;fillColor=none;points=[[0,0.5],[1,0.5]];portConstraint=eastwest;strokeColor=inherit;fontSize=16;" vertex="1" parent="4VEDjEmkF4Wl-3KHhdz3-44">
          <mxGeometry y="120" width="240" height="30" as="geometry" />
        </mxCell>
        <mxCell id="Xww3v0tDHA8YOL_0oZIG-2" value="" style="shape=partialRectangle;html=1;whiteSpace=wrap;connectable=0;fillColor=none;top=0;left=0;bottom=0;right=0;overflow=hidden;pointerEvents=1;strokeColor=inherit;fontSize=16;" vertex="1" parent="Xww3v0tDHA8YOL_0oZIG-1">
          <mxGeometry width="48" height="30" as="geometry">
            <mxRectangle width="48" height="30" as="alternateBounds" />
          </mxGeometry>
        </mxCell>
        <mxCell id="Xww3v0tDHA8YOL_0oZIG-3" value="&lt;font style=&quot;font-size: 14px;&quot;&gt;color: &lt;b&gt;VARCHAR&lt;/b&gt;&lt;/font&gt;" style="shape=partialRectangle;html=1;whiteSpace=wrap;connectable=0;fillColor=none;top=0;left=0;bottom=0;right=0;align=left;spacingLeft=6;overflow=hidden;strokeColor=inherit;fontSize=16;" vertex="1" parent="Xww3v0tDHA8YOL_0oZIG-1">
          <mxGeometry x="48" width="192" height="30" as="geometry">
            <mxRectangle width="192" height="30" as="alternateBounds" />
          </mxGeometry>
        </mxCell>
        <mxCell id="Xww3v0tDHA8YOL_0oZIG-4" value="" style="shape=tableRow;horizontal=0;startSize=0;swimlaneHead=0;swimlaneBody=0;top=0;left=0;bottom=0;right=0;collapsible=0;dropTarget=0;fillColor=none;points=[[0,0.5],[1,0.5]];portConstraint=eastwest;strokeColor=inherit;fontSize=16;" vertex="1" parent="4VEDjEmkF4Wl-3KHhdz3-44">
          <mxGeometry y="150" width="240" height="30" as="geometry" />
        </mxCell>
        <mxCell id="Xww3v0tDHA8YOL_0oZIG-5" value="" style="shape=partialRectangle;html=1;whiteSpace=wrap;connectable=0;fillColor=none;top=0;left=0;bottom=0;right=0;overflow=hidden;pointerEvents=1;strokeColor=inherit;fontSize=16;" vertex="1" parent="Xww3v0tDHA8YOL_0oZIG-4">
          <mxGeometry width="48" height="30" as="geometry">
            <mxRectangle width="48" height="30" as="alternateBounds" />
          </mxGeometry>
        </mxCell>
        <mxCell id="Xww3v0tDHA8YOL_0oZIG-6" value="&lt;font style=&quot;font-size: 14px;&quot;&gt;width_cm: &lt;b&gt;INTEGER&lt;/b&gt;&lt;/font&gt;" style="shape=partialRectangle;html=1;whiteSpace=wrap;connectable=0;fillColor=none;top=0;left=0;bottom=0;right=0;align=left;spacingLeft=6;overflow=hidden;strokeColor=inherit;fontSize=16;" vertex="1" parent="Xww3v0tDHA8YOL_0oZIG-4">
          <mxGeometry x="48" width="192" height="30" as="geometry">
            <mxRectangle width="192" height="30" as="alternateBounds" />
          </mxGeometry>
        </mxCell>
        <mxCell id="Xww3v0tDHA8YOL_0oZIG-7" value="" style="shape=tableRow;horizontal=0;startSize=0;swimlaneHead=0;swimlaneBody=0;top=0;left=0;bottom=0;right=0;collapsible=0;dropTarget=0;fillColor=none;points=[[0,0.5],[1,0.5]];portConstraint=eastwest;strokeColor=inherit;fontSize=16;" vertex="1" parent="4VEDjEmkF4Wl-3KHhdz3-44">
          <mxGeometry y="180" width="240" height="30" as="geometry" />
        </mxCell>
        <mxCell id="Xww3v0tDHA8YOL_0oZIG-8" value="" style="shape=partialRectangle;html=1;whiteSpace=wrap;connectable=0;fillColor=none;top=0;left=0;bottom=0;right=0;overflow=hidden;pointerEvents=1;strokeColor=inherit;fontSize=16;" vertex="1" parent="Xww3v0tDHA8YOL_0oZIG-7">
          <mxGeometry width="48" height="30" as="geometry">
            <mxRectangle width="48" height="30" as="alternateBounds" />
          </mxGeometry>
        </mxCell>
        <mxCell id="Xww3v0tDHA8YOL_0oZIG-9" value="&lt;font style=&quot;font-size: 14px;&quot;&gt;height_cm: &lt;b&gt;INTEGER&lt;/b&gt;&lt;/font&gt;" style="shape=partialRectangle;html=1;whiteSpace=wrap;connectable=0;fillColor=none;top=0;left=0;bottom=0;right=0;align=left;spacingLeft=6;overflow=hidden;strokeColor=inherit;fontSize=16;" vertex="1" parent="Xww3v0tDHA8YOL_0oZIG-7">
          <mxGeometry x="48" width="192" height="30" as="geometry">
            <mxRectangle width="192" height="30" as="alternateBounds" />
          </mxGeometry>
        </mxCell>
        <mxCell id="Xww3v0tDHA8YOL_0oZIG-10" value="" style="shape=tableRow;horizontal=0;startSize=0;swimlaneHead=0;swimlaneBody=0;top=0;left=0;bottom=0;right=0;collapsible=0;dropTarget=0;fillColor=none;points=[[0,0.5],[1,0.5]];portConstraint=eastwest;strokeColor=inherit;fontSize=16;" vertex="1" parent="4VEDjEmkF4Wl-3KHhdz3-44">
          <mxGeometry y="210" width="240" height="30" as="geometry" />
        </mxCell>
        <mxCell id="Xww3v0tDHA8YOL_0oZIG-11" value="" style="shape=partialRectangle;html=1;whiteSpace=wrap;connectable=0;fillColor=none;top=0;left=0;bottom=0;right=0;overflow=hidden;pointerEvents=1;strokeColor=inherit;fontSize=16;" vertex="1" parent="Xww3v0tDHA8YOL_0oZIG-10">
          <mxGeometry width="48" height="30" as="geometry">
            <mxRectangle width="48" height="30" as="alternateBounds" />
          </mxGeometry>
        </mxCell>
        <mxCell id="Xww3v0tDHA8YOL_0oZIG-12" value="&lt;font style=&quot;font-size: 14px;&quot;&gt;weight_g: &lt;b&gt;INTEGER&lt;/b&gt;&lt;/font&gt;" style="shape=partialRectangle;html=1;whiteSpace=wrap;connectable=0;fillColor=none;top=0;left=0;bottom=0;right=0;align=left;spacingLeft=6;overflow=hidden;strokeColor=inherit;fontSize=16;" vertex="1" parent="Xww3v0tDHA8YOL_0oZIG-10">
          <mxGeometry x="48" width="192" height="30" as="geometry">
            <mxRectangle width="192" height="30" as="alternateBounds" />
          </mxGeometry>
        </mxCell>
        <mxCell id="4VEDjEmkF4Wl-3KHhdz3-57" value="" style="shape=tableRow;horizontal=0;startSize=0;swimlaneHead=0;swimlaneBody=0;top=0;left=0;bottom=0;right=0;collapsible=0;dropTarget=0;fillColor=none;points=[[0,0.5],[1,0.5]];portConstraint=eastwest;strokeColor=inherit;fontSize=16;" parent="4VEDjEmkF4Wl-3KHhdz3-44" vertex="1">
          <mxGeometry y="240" width="240" height="30" as="geometry" />
        </mxCell>
        <mxCell id="4VEDjEmkF4Wl-3KHhdz3-58" value="" style="shape=partialRectangle;html=1;whiteSpace=wrap;connectable=0;fillColor=none;top=0;left=0;bottom=0;right=0;overflow=hidden;pointerEvents=1;strokeColor=inherit;fontSize=16;" parent="4VEDjEmkF4Wl-3KHhdz3-57" vertex="1">
          <mxGeometry width="48" height="30" as="geometry">
            <mxRectangle width="48" height="30" as="alternateBounds" />
          </mxGeometry>
        </mxCell>
        <mxCell id="4VEDjEmkF4Wl-3KHhdz3-59" value="&lt;font style=&quot;font-size: 14px;&quot;&gt;description: &lt;b&gt;TEXT&lt;/b&gt;&lt;/font&gt;" style="shape=partialRectangle;html=1;whiteSpace=wrap;connectable=0;fillColor=none;top=0;left=0;bottom=0;right=0;align=left;spacingLeft=6;overflow=hidden;strokeColor=inherit;fontSize=16;" parent="4VEDjEmkF4Wl-3KHhdz3-57" vertex="1">
          <mxGeometry x="48" width="192" height="30" as="geometry">
            <mxRectangle width="192" height="30" as="alternateBounds" />
          </mxGeometry>
        </mxCell>
        <mxCell id="4VEDjEmkF4Wl-3KHhdz3-60" value="" style="shape=tableRow;horizontal=0;startSize=0;swimlaneHead=0;swimlaneBody=0;top=0;left=0;bottom=0;right=0;collapsible=0;dropTarget=0;fillColor=none;points=[[0,0.5],[1,0.5]];portConstraint=eastwest;strokeColor=inherit;fontSize=16;" parent="4VEDjEmkF4Wl-3KHhdz3-44" vertex="1">
          <mxGeometry y="270" width="240" height="30" as="geometry" />
        </mxCell>
        <mxCell id="4VEDjEmkF4Wl-3KHhdz3-61" value="" style="shape=partialRectangle;html=1;whiteSpace=wrap;connectable=0;fillColor=none;top=0;left=0;bottom=0;right=0;overflow=hidden;pointerEvents=1;strokeColor=inherit;fontSize=16;" parent="4VEDjEmkF4Wl-3KHhdz3-60" vertex="1">
          <mxGeometry width="48" height="30" as="geometry">
            <mxRectangle width="48" height="30" as="alternateBounds" />
          </mxGeometry>
        </mxCell>
        <mxCell id="4VEDjEmkF4Wl-3KHhdz3-62" value="&lt;font style=&quot;font-size: 14px;&quot;&gt;quantity_in_stock: &lt;b&gt;INTEGER&lt;/b&gt;&lt;/font&gt;" style="shape=partialRectangle;html=1;whiteSpace=wrap;connectable=0;fillColor=none;top=0;left=0;bottom=0;right=0;align=left;spacingLeft=6;overflow=hidden;strokeColor=inherit;fontSize=16;" parent="4VEDjEmkF4Wl-3KHhdz3-60" vertex="1">
          <mxGeometry x="48" width="192" height="30" as="geometry">
            <mxRectangle width="192" height="30" as="alternateBounds" />
          </mxGeometry>
        </mxCell>
        <object label="Categories" уацуа="" id="4VEDjEmkF4Wl-3KHhdz3-72">
          <mxCell style="shape=table;startSize=30;container=1;collapsible=0;childLayout=tableLayout;fixedRows=1;rowLines=0;fontStyle=0;strokeColor=light-dark(#000000,#994C00);fontSize=16;" parent="1" vertex="1">
            <mxGeometry x="450" y="50" width="200" height="90" as="geometry" />
          </mxCell>
        </object>
        <mxCell id="4VEDjEmkF4Wl-3KHhdz3-73" value="" style="shape=tableRow;horizontal=0;startSize=0;swimlaneHead=0;swimlaneBody=0;top=0;left=0;bottom=0;right=0;collapsible=0;dropTarget=0;fillColor=none;points=[[0,0.5],[1,0.5]];portConstraint=eastwest;strokeColor=inherit;fontSize=16;" parent="4VEDjEmkF4Wl-3KHhdz3-72" vertex="1">
          <mxGeometry y="30" width="200" height="30" as="geometry" />
        </mxCell>
        <mxCell id="4VEDjEmkF4Wl-3KHhdz3-74" value="&lt;font style=&quot;font-size: 14px;&quot;&gt;PK&lt;/font&gt;" style="shape=partialRectangle;html=1;whiteSpace=wrap;connectable=0;fillColor=none;top=0;left=0;bottom=0;right=0;overflow=hidden;pointerEvents=1;strokeColor=inherit;fontSize=16;" parent="4VEDjEmkF4Wl-3KHhdz3-73" vertex="1">
          <mxGeometry width="40" height="30" as="geometry">
            <mxRectangle width="40" height="30" as="alternateBounds" />
          </mxGeometry>
        </mxCell>
        <mxCell id="4VEDjEmkF4Wl-3KHhdz3-75" value="&lt;font style=&quot;font-size: 14px;&quot;&gt;category_id: &lt;b&gt;INTEGER&lt;/b&gt;&lt;/font&gt;" style="shape=partialRectangle;html=1;whiteSpace=wrap;connectable=0;fillColor=none;top=0;left=0;bottom=0;right=0;align=left;spacingLeft=6;overflow=hidden;strokeColor=inherit;fontSize=16;" parent="4VEDjEmkF4Wl-3KHhdz3-73" vertex="1">
          <mxGeometry x="40" width="160" height="30" as="geometry">
            <mxRectangle width="160" height="30" as="alternateBounds" />
          </mxGeometry>
        </mxCell>
        <mxCell id="4VEDjEmkF4Wl-3KHhdz3-76" value="" style="shape=tableRow;horizontal=0;startSize=0;swimlaneHead=0;swimlaneBody=0;top=0;left=0;bottom=0;right=0;collapsible=0;dropTarget=0;fillColor=none;points=[[0,0.5],[1,0.5]];portConstraint=eastwest;strokeColor=inherit;fontSize=16;" parent="4VEDjEmkF4Wl-3KHhdz3-72" vertex="1">
          <mxGeometry y="60" width="200" height="30" as="geometry" />
        </mxCell>
        <mxCell id="4VEDjEmkF4Wl-3KHhdz3-77" value="" style="shape=partialRectangle;html=1;whiteSpace=wrap;connectable=0;fillColor=none;top=0;left=0;bottom=0;right=0;overflow=hidden;pointerEvents=1;strokeColor=inherit;fontSize=16;" parent="4VEDjEmkF4Wl-3KHhdz3-76" vertex="1">
          <mxGeometry width="40" height="30" as="geometry">
            <mxRectangle width="40" height="30" as="alternateBounds" />
          </mxGeometry>
        </mxCell>
        <mxCell id="4VEDjEmkF4Wl-3KHhdz3-78" value="&lt;font style=&quot;font-size: 14px;&quot;&gt;name: &lt;b style=&quot;&quot;&gt;VARCHAR&lt;/b&gt;&lt;/font&gt;" style="shape=partialRectangle;html=1;whiteSpace=wrap;connectable=0;fillColor=none;top=0;left=0;bottom=0;right=0;align=left;spacingLeft=6;overflow=hidden;strokeColor=inherit;fontSize=16;" parent="4VEDjEmkF4Wl-3KHhdz3-76" vertex="1">
          <mxGeometry x="40" width="160" height="30" as="geometry">
            <mxRectangle width="160" height="30" as="alternateBounds" />
          </mxGeometry>
        </mxCell>
        <object label="Products_categories" уацуа="" id="4VEDjEmkF4Wl-3KHhdz3-79">
          <mxCell style="shape=table;startSize=30;container=1;collapsible=0;childLayout=tableLayout;fixedRows=1;rowLines=0;fontStyle=0;strokeColor=light-dark(#000000,#994C00);fontSize=16;" parent="1" vertex="1">
            <mxGeometry x="440" y="210" width="220" height="120" as="geometry" />
          </mxCell>
        </object>
        <mxCell id="4VEDjEmkF4Wl-3KHhdz3-80" value="" style="shape=tableRow;horizontal=0;startSize=0;swimlaneHead=0;swimlaneBody=0;top=0;left=0;bottom=0;right=0;collapsible=0;dropTarget=0;fillColor=none;points=[[0,0.5],[1,0.5]];portConstraint=eastwest;strokeColor=inherit;fontSize=16;" parent="4VEDjEmkF4Wl-3KHhdz3-79" vertex="1">
          <mxGeometry y="30" width="220" height="30" as="geometry" />
        </mxCell>
        <mxCell id="4VEDjEmkF4Wl-3KHhdz3-81" value="&lt;span style=&quot;font-size: 14px;&quot;&gt;FK&lt;/span&gt;" style="shape=partialRectangle;html=1;whiteSpace=wrap;connectable=0;fillColor=none;top=0;left=0;bottom=0;right=0;overflow=hidden;pointerEvents=1;strokeColor=inherit;fontSize=16;" parent="4VEDjEmkF4Wl-3KHhdz3-80" vertex="1">
          <mxGeometry width="44" height="30" as="geometry">
            <mxRectangle width="44" height="30" as="alternateBounds" />
          </mxGeometry>
        </mxCell>
        <mxCell id="4VEDjEmkF4Wl-3KHhdz3-82" value="&lt;font style=&quot;font-size: 14px;&quot;&gt;product_id: &lt;b&gt;INTEGER&lt;/b&gt;&lt;/font&gt;" style="shape=partialRectangle;html=1;whiteSpace=wrap;connectable=0;fillColor=none;top=0;left=0;bottom=0;right=0;align=left;spacingLeft=6;overflow=hidden;strokeColor=inherit;fontSize=16;" parent="4VEDjEmkF4Wl-3KHhdz3-80" vertex="1">
          <mxGeometry x="44" width="176" height="30" as="geometry">
            <mxRectangle width="176" height="30" as="alternateBounds" />
          </mxGeometry>
        </mxCell>
        <mxCell id="4VEDjEmkF4Wl-3KHhdz3-83" value="" style="shape=tableRow;horizontal=0;startSize=0;swimlaneHead=0;swimlaneBody=0;top=0;left=0;bottom=0;right=0;collapsible=0;dropTarget=0;fillColor=none;points=[[0,0.5],[1,0.5]];portConstraint=eastwest;strokeColor=inherit;fontSize=16;" parent="4VEDjEmkF4Wl-3KHhdz3-79" vertex="1">
          <mxGeometry y="60" width="220" height="30" as="geometry" />
        </mxCell>
        <mxCell id="4VEDjEmkF4Wl-3KHhdz3-84" value="&lt;font style=&quot;font-size: 14px;&quot;&gt;FK&lt;/font&gt;" style="shape=partialRectangle;html=1;whiteSpace=wrap;connectable=0;fillColor=none;top=0;left=0;bottom=0;right=0;overflow=hidden;pointerEvents=1;strokeColor=inherit;fontSize=16;" parent="4VEDjEmkF4Wl-3KHhdz3-83" vertex="1">
          <mxGeometry width="44" height="30" as="geometry">
            <mxRectangle width="44" height="30" as="alternateBounds" />
          </mxGeometry>
        </mxCell>
        <mxCell id="4VEDjEmkF4Wl-3KHhdz3-85" value="&lt;font style=&quot;font-size: 14px;&quot;&gt;category_id: &lt;b&gt;INTEGER&lt;/b&gt;&lt;/font&gt;" style="shape=partialRectangle;html=1;whiteSpace=wrap;connectable=0;fillColor=none;top=0;left=0;bottom=0;right=0;align=left;spacingLeft=6;overflow=hidden;strokeColor=inherit;fontSize=16;" parent="4VEDjEmkF4Wl-3KHhdz3-83" vertex="1">
          <mxGeometry x="44" width="176" height="30" as="geometry">
            <mxRectangle width="176" height="30" as="alternateBounds" />
          </mxGeometry>
        </mxCell>
        <mxCell id="4VEDjEmkF4Wl-3KHhdz3-86" value="" style="shape=tableRow;horizontal=0;startSize=0;swimlaneHead=0;swimlaneBody=0;top=0;left=0;bottom=0;right=0;collapsible=0;dropTarget=0;fillColor=none;points=[[0,0.5],[1,0.5]];portConstraint=eastwest;strokeColor=inherit;fontSize=16;" parent="4VEDjEmkF4Wl-3KHhdz3-79" vertex="1">
          <mxGeometry y="90" width="220" height="30" as="geometry" />
        </mxCell>
        <mxCell id="4VEDjEmkF4Wl-3KHhdz3-87" value="&lt;span style=&quot;font-size: 14px;&quot;&gt;PK&lt;/span&gt;" style="shape=partialRectangle;html=1;whiteSpace=wrap;connectable=0;fillColor=none;top=0;left=0;bottom=0;right=0;overflow=hidden;pointerEvents=1;strokeColor=inherit;fontSize=16;" parent="4VEDjEmkF4Wl-3KHhdz3-86" vertex="1">
          <mxGeometry width="44" height="30" as="geometry">
            <mxRectangle width="44" height="30" as="alternateBounds" />
          </mxGeometry>
        </mxCell>
        <mxCell id="4VEDjEmkF4Wl-3KHhdz3-88" value="&lt;span style=&quot;font-size: 14px;&quot;&gt;(product_id, category_id)&lt;/span&gt;" style="shape=partialRectangle;html=1;whiteSpace=wrap;connectable=0;fillColor=none;top=0;left=0;bottom=0;right=0;align=left;spacingLeft=6;overflow=hidden;strokeColor=inherit;fontSize=16;" parent="4VEDjEmkF4Wl-3KHhdz3-86" vertex="1">
          <mxGeometry x="44" width="176" height="30" as="geometry">
            <mxRectangle width="176" height="30" as="alternateBounds" />
          </mxGeometry>
        </mxCell>
        <mxCell id="4VEDjEmkF4Wl-3KHhdz3-90" style="edgeStyle=orthogonalEdgeStyle;rounded=0;orthogonalLoop=1;jettySize=auto;html=1;exitX=0;exitY=0.5;exitDx=0;exitDy=0;entryX=0;entryY=0.5;entryDx=0;entryDy=0;startArrow=ERoneToMany;startFill=0;endArrow=ERmandOne;endFill=0;strokeColor=light-dark(#000000,#FFFFFF);" parent="1" source="4VEDjEmkF4Wl-3KHhdz3-16" target="4VEDjEmkF4Wl-3KHhdz3-3" edge="1">
          <mxGeometry relative="1" as="geometry" />
        </mxCell>
        <mxCell id="4VEDjEmkF4Wl-3KHhdz3-92" style="edgeStyle=orthogonalEdgeStyle;rounded=0;orthogonalLoop=1;jettySize=auto;html=1;exitX=1;exitY=0.5;exitDx=0;exitDy=0;entryX=0;entryY=0.5;entryDx=0;entryDy=0;startArrow=ERoneToMany;startFill=0;endArrow=ERmandOne;endFill=0;" parent="1" source="4VEDjEmkF4Wl-3KHhdz3-83" target="4VEDjEmkF4Wl-3KHhdz3-73" edge="1">
          <mxGeometry relative="1" as="geometry" />
        </mxCell>
        <object label="Carts" уацуа="" id="4VEDjEmkF4Wl-3KHhdz3-131">
          <mxCell style="shape=table;startSize=30;container=1;collapsible=0;childLayout=tableLayout;fixedRows=1;rowLines=0;fontStyle=0;fontSize=16;strokeColor=light-dark(#000000,#999900);" parent="1" vertex="1">
            <mxGeometry x="80" y="610" width="200" height="90" as="geometry" />
          </mxCell>
        </object>
        <mxCell id="4VEDjEmkF4Wl-3KHhdz3-132" value="" style="shape=tableRow;horizontal=0;startSize=0;swimlaneHead=0;swimlaneBody=0;top=0;left=0;bottom=0;right=0;collapsible=0;dropTarget=0;points=[[0,0.5],[1,0.5]];portConstraint=eastwest;fontSize=16;strokeColor=light-dark(#000000,#990000);" parent="4VEDjEmkF4Wl-3KHhdz3-131" vertex="1">
          <mxGeometry y="30" width="200" height="30" as="geometry" />
        </mxCell>
        <mxCell id="4VEDjEmkF4Wl-3KHhdz3-133" value="&lt;font style=&quot;font-size: 14px;&quot;&gt;PK&lt;/font&gt;" style="shape=partialRectangle;html=1;whiteSpace=wrap;connectable=0;top=0;left=0;bottom=0;right=0;overflow=hidden;pointerEvents=1;fontSize=16;strokeColor=light-dark(#000000,#990000);" parent="4VEDjEmkF4Wl-3KHhdz3-132" vertex="1">
          <mxGeometry width="40" height="30" as="geometry">
            <mxRectangle width="40" height="30" as="alternateBounds" />
          </mxGeometry>
        </mxCell>
        <mxCell id="4VEDjEmkF4Wl-3KHhdz3-134" value="&lt;font style=&quot;font-size: 14px;&quot;&gt;cart_id: &lt;b&gt;INTEGER&lt;/b&gt;&lt;/font&gt;" style="shape=partialRectangle;html=1;whiteSpace=wrap;connectable=0;top=0;left=0;bottom=0;right=0;align=left;spacingLeft=6;overflow=hidden;fontSize=16;strokeColor=light-dark(#000000,#990000);" parent="4VEDjEmkF4Wl-3KHhdz3-132" vertex="1">
          <mxGeometry x="40" width="160" height="30" as="geometry">
            <mxRectangle width="160" height="30" as="alternateBounds" />
          </mxGeometry>
        </mxCell>
        <mxCell id="4VEDjEmkF4Wl-3KHhdz3-135" value="" style="shape=tableRow;horizontal=0;startSize=0;swimlaneHead=0;swimlaneBody=0;top=0;left=0;bottom=0;right=0;collapsible=0;dropTarget=0;points=[[0,0.5],[1,0.5]];portConstraint=eastwest;fontSize=16;strokeColor=light-dark(#000000,#990000);" parent="4VEDjEmkF4Wl-3KHhdz3-131" vertex="1">
          <mxGeometry y="60" width="200" height="30" as="geometry" />
        </mxCell>
        <mxCell id="4VEDjEmkF4Wl-3KHhdz3-136" value="&lt;font style=&quot;font-size: 14px;&quot;&gt;FK&lt;/font&gt;" style="shape=partialRectangle;html=1;whiteSpace=wrap;connectable=0;top=0;left=0;bottom=0;right=0;overflow=hidden;pointerEvents=1;fontSize=16;strokeColor=light-dark(#000000,#990000);" parent="4VEDjEmkF4Wl-3KHhdz3-135" vertex="1">
          <mxGeometry width="40" height="30" as="geometry">
            <mxRectangle width="40" height="30" as="alternateBounds" />
          </mxGeometry>
        </mxCell>
        <mxCell id="4VEDjEmkF4Wl-3KHhdz3-137" value="&lt;font style=&quot;font-size: 14px;&quot;&gt;user_id: &lt;b&gt;INTEGER&lt;/b&gt;&lt;/font&gt;" style="shape=partialRectangle;html=1;whiteSpace=wrap;connectable=0;top=0;left=0;bottom=0;right=0;align=left;spacingLeft=6;overflow=hidden;fontSize=16;strokeColor=light-dark(#000000,#990000);" parent="4VEDjEmkF4Wl-3KHhdz3-135" vertex="1">
          <mxGeometry x="40" width="160" height="30" as="geometry">
            <mxRectangle width="160" height="30" as="alternateBounds" />
          </mxGeometry>
        </mxCell>
        <mxCell id="4VEDjEmkF4Wl-3KHhdz3-170" style="edgeStyle=orthogonalEdgeStyle;rounded=0;orthogonalLoop=1;jettySize=auto;html=1;exitX=1;exitY=0.5;exitDx=0;exitDy=0;entryX=0;entryY=0.5;entryDx=0;entryDy=0;endArrow=ERmandOne;endFill=0;startArrow=ERoneToMany;startFill=0;" parent="1" source="4VEDjEmkF4Wl-3KHhdz3-138" target="4VEDjEmkF4Wl-3KHhdz3-45" edge="1">
          <mxGeometry relative="1" as="geometry" />
        </mxCell>
        <object label="Cart_items" уацуа="" id="4VEDjEmkF4Wl-3KHhdz3-138">
          <mxCell style="shape=table;startSize=30;container=1;collapsible=0;childLayout=tableLayout;fixedRows=1;rowLines=0;fontStyle=0;fontSize=16;strokeColor=light-dark(#000000,#999900);" parent="1" vertex="1">
            <mxGeometry x="50" y="780" width="260" height="150" as="geometry" />
          </mxCell>
        </object>
        <mxCell id="4VEDjEmkF4Wl-3KHhdz3-139" value="" style="shape=tableRow;horizontal=0;startSize=0;swimlaneHead=0;swimlaneBody=0;top=0;left=0;bottom=0;right=0;collapsible=0;dropTarget=0;points=[[0,0.5],[1,0.5]];portConstraint=eastwest;fontSize=16;strokeColor=light-dark(#000000,#990000);" parent="4VEDjEmkF4Wl-3KHhdz3-138" vertex="1">
          <mxGeometry y="30" width="260" height="30" as="geometry" />
        </mxCell>
        <mxCell id="4VEDjEmkF4Wl-3KHhdz3-140" value="&lt;font style=&quot;font-size: 14px;&quot;&gt;PK&lt;/font&gt;" style="shape=partialRectangle;html=1;whiteSpace=wrap;connectable=0;top=0;left=0;bottom=0;right=0;overflow=hidden;pointerEvents=1;fontSize=16;strokeColor=light-dark(#000000,#990000);" parent="4VEDjEmkF4Wl-3KHhdz3-139" vertex="1">
          <mxGeometry width="52" height="30" as="geometry">
            <mxRectangle width="52" height="30" as="alternateBounds" />
          </mxGeometry>
        </mxCell>
        <mxCell id="4VEDjEmkF4Wl-3KHhdz3-141" value="&lt;font style=&quot;font-size: 14px;&quot;&gt;cart_item_id: &lt;b&gt;INTEGER&lt;/b&gt;&lt;/font&gt;" style="shape=partialRectangle;html=1;whiteSpace=wrap;connectable=0;top=0;left=0;bottom=0;right=0;align=left;spacingLeft=6;overflow=hidden;fontSize=16;strokeColor=light-dark(#000000,#990000);" parent="4VEDjEmkF4Wl-3KHhdz3-139" vertex="1">
          <mxGeometry x="52" width="208" height="30" as="geometry">
            <mxRectangle width="208" height="30" as="alternateBounds" />
          </mxGeometry>
        </mxCell>
        <mxCell id="4VEDjEmkF4Wl-3KHhdz3-142" value="" style="shape=tableRow;horizontal=0;startSize=0;swimlaneHead=0;swimlaneBody=0;top=0;left=0;bottom=0;right=0;collapsible=0;dropTarget=0;points=[[0,0.5],[1,0.5]];portConstraint=eastwest;fontSize=16;strokeColor=light-dark(#000000,#990000);" parent="4VEDjEmkF4Wl-3KHhdz3-138" vertex="1">
          <mxGeometry y="60" width="260" height="30" as="geometry" />
        </mxCell>
        <mxCell id="4VEDjEmkF4Wl-3KHhdz3-143" value="&lt;font style=&quot;font-size: 14px;&quot;&gt;FK&lt;/font&gt;" style="shape=partialRectangle;html=1;whiteSpace=wrap;connectable=0;top=0;left=0;bottom=0;right=0;overflow=hidden;pointerEvents=1;fontSize=16;strokeColor=light-dark(#000000,#990000);" parent="4VEDjEmkF4Wl-3KHhdz3-142" vertex="1">
          <mxGeometry width="52" height="30" as="geometry">
            <mxRectangle width="52" height="30" as="alternateBounds" />
          </mxGeometry>
        </mxCell>
        <mxCell id="4VEDjEmkF4Wl-3KHhdz3-144" value="&lt;font style=&quot;font-size: 14px;&quot;&gt;cart_id: &lt;b style=&quot;&quot;&gt;INTEGER&lt;/b&gt;&lt;/font&gt;" style="shape=partialRectangle;html=1;whiteSpace=wrap;connectable=0;top=0;left=0;bottom=0;right=0;align=left;spacingLeft=6;overflow=hidden;fontSize=16;strokeColor=light-dark(#000000,#990000);" parent="4VEDjEmkF4Wl-3KHhdz3-142" vertex="1">
          <mxGeometry x="52" width="208" height="30" as="geometry">
            <mxRectangle width="208" height="30" as="alternateBounds" />
          </mxGeometry>
        </mxCell>
        <mxCell id="4VEDjEmkF4Wl-3KHhdz3-167" value="" style="shape=tableRow;horizontal=0;startSize=0;swimlaneHead=0;swimlaneBody=0;top=0;left=0;bottom=0;right=0;collapsible=0;dropTarget=0;points=[[0,0.5],[1,0.5]];portConstraint=eastwest;fontSize=16;strokeColor=light-dark(#000000,#990000);" parent="4VEDjEmkF4Wl-3KHhdz3-138" vertex="1">
          <mxGeometry y="90" width="260" height="30" as="geometry" />
        </mxCell>
        <mxCell id="4VEDjEmkF4Wl-3KHhdz3-168" value="&lt;font style=&quot;font-size: 14px;&quot;&gt;FK&lt;/font&gt;" style="shape=partialRectangle;html=1;whiteSpace=wrap;connectable=0;top=0;left=0;bottom=0;right=0;overflow=hidden;pointerEvents=1;fontSize=16;strokeColor=light-dark(#000000,#990000);" parent="4VEDjEmkF4Wl-3KHhdz3-167" vertex="1">
          <mxGeometry width="52" height="30" as="geometry">
            <mxRectangle width="52" height="30" as="alternateBounds" />
          </mxGeometry>
        </mxCell>
        <mxCell id="4VEDjEmkF4Wl-3KHhdz3-169" value="&lt;font style=&quot;font-size: 14px;&quot;&gt;product_id: &lt;b style=&quot;&quot;&gt;INTEGER&lt;/b&gt;&lt;/font&gt;" style="shape=partialRectangle;html=1;whiteSpace=wrap;connectable=0;top=0;left=0;bottom=0;right=0;align=left;spacingLeft=6;overflow=hidden;fontSize=16;strokeColor=light-dark(#000000,#990000);" parent="4VEDjEmkF4Wl-3KHhdz3-167" vertex="1">
          <mxGeometry x="52" width="208" height="30" as="geometry">
            <mxRectangle width="208" height="30" as="alternateBounds" />
          </mxGeometry>
        </mxCell>
        <mxCell id="4VEDjEmkF4Wl-3KHhdz3-163" value="" style="shape=tableRow;horizontal=0;startSize=0;swimlaneHead=0;swimlaneBody=0;top=0;left=0;bottom=0;right=0;collapsible=0;dropTarget=0;points=[[0,0.5],[1,0.5]];portConstraint=eastwest;fontSize=16;strokeColor=light-dark(#000000,#990000);" parent="4VEDjEmkF4Wl-3KHhdz3-138" vertex="1">
          <mxGeometry y="120" width="260" height="30" as="geometry" />
        </mxCell>
        <mxCell id="4VEDjEmkF4Wl-3KHhdz3-164" value="" style="shape=partialRectangle;html=1;whiteSpace=wrap;connectable=0;top=0;left=0;bottom=0;right=0;overflow=hidden;pointerEvents=1;fontSize=16;strokeColor=light-dark(#000000,#990000);" parent="4VEDjEmkF4Wl-3KHhdz3-163" vertex="1">
          <mxGeometry width="52" height="30" as="geometry">
            <mxRectangle width="52" height="30" as="alternateBounds" />
          </mxGeometry>
        </mxCell>
        <mxCell id="4VEDjEmkF4Wl-3KHhdz3-165" value="&lt;span style=&quot;font-size: 14px;&quot;&gt;quantity: &lt;b&gt;INTEGER&lt;/b&gt;&lt;/span&gt;" style="shape=partialRectangle;html=1;whiteSpace=wrap;connectable=0;top=0;left=0;bottom=0;right=0;align=left;spacingLeft=6;overflow=hidden;fontSize=16;strokeColor=light-dark(#000000,#990000);" parent="4VEDjEmkF4Wl-3KHhdz3-163" vertex="1">
          <mxGeometry x="52" width="208" height="30" as="geometry">
            <mxRectangle width="208" height="30" as="alternateBounds" />
          </mxGeometry>
        </mxCell>
        <mxCell id="4VEDjEmkF4Wl-3KHhdz3-166" style="edgeStyle=orthogonalEdgeStyle;rounded=0;orthogonalLoop=1;jettySize=auto;html=1;exitX=0;exitY=0.5;exitDx=0;exitDy=0;entryX=0;entryY=0.5;entryDx=0;entryDy=0;startArrow=ERoneToMany;startFill=0;endArrow=ERmandOne;endFill=0;strokeColor=light-dark(#000000,#FFFFFF);" parent="1" source="4VEDjEmkF4Wl-3KHhdz3-142" target="4VEDjEmkF4Wl-3KHhdz3-132" edge="1">
          <mxGeometry relative="1" as="geometry" />
        </mxCell>
        <object label="Payment_cards" уацуа="" id="4VEDjEmkF4Wl-3KHhdz3-171">
          <mxCell style="shape=table;startSize=30;container=1;collapsible=0;childLayout=tableLayout;fixedRows=1;rowLines=0;fontStyle=0;fontSize=16;strokeColor=light-dark(#000000,#4D9900);" parent="1" vertex="1">
            <mxGeometry x="50" y="1040" width="260" height="210" as="geometry" />
          </mxCell>
        </object>
        <mxCell id="4VEDjEmkF4Wl-3KHhdz3-172" value="" style="shape=tableRow;horizontal=0;startSize=0;swimlaneHead=0;swimlaneBody=0;top=0;left=0;bottom=0;right=0;collapsible=0;dropTarget=0;points=[[0,0.5],[1,0.5]];portConstraint=eastwest;fontSize=16;strokeColor=light-dark(#000000,#990000);" parent="4VEDjEmkF4Wl-3KHhdz3-171" vertex="1">
          <mxGeometry y="30" width="260" height="30" as="geometry" />
        </mxCell>
        <mxCell id="4VEDjEmkF4Wl-3KHhdz3-173" value="&lt;font style=&quot;font-size: 14px;&quot;&gt;PK&lt;/font&gt;" style="shape=partialRectangle;html=1;whiteSpace=wrap;connectable=0;top=0;left=0;bottom=0;right=0;overflow=hidden;pointerEvents=1;fontSize=16;strokeColor=light-dark(#000000,#990000);" parent="4VEDjEmkF4Wl-3KHhdz3-172" vertex="1">
          <mxGeometry width="52" height="30" as="geometry">
            <mxRectangle width="52" height="30" as="alternateBounds" />
          </mxGeometry>
        </mxCell>
        <mxCell id="4VEDjEmkF4Wl-3KHhdz3-174" value="&lt;font style=&quot;font-size: 14px;&quot;&gt;card_id: &lt;b&gt;INTEGER&lt;/b&gt;&lt;/font&gt;" style="shape=partialRectangle;html=1;whiteSpace=wrap;connectable=0;top=0;left=0;bottom=0;right=0;align=left;spacingLeft=6;overflow=hidden;fontSize=16;strokeColor=light-dark(#000000,#990000);" parent="4VEDjEmkF4Wl-3KHhdz3-172" vertex="1">
          <mxGeometry x="52" width="208" height="30" as="geometry">
            <mxRectangle width="208" height="30" as="alternateBounds" />
          </mxGeometry>
        </mxCell>
        <mxCell id="4VEDjEmkF4Wl-3KHhdz3-175" value="" style="shape=tableRow;horizontal=0;startSize=0;swimlaneHead=0;swimlaneBody=0;top=0;left=0;bottom=0;right=0;collapsible=0;dropTarget=0;points=[[0,0.5],[1,0.5]];portConstraint=eastwest;fontSize=16;strokeColor=light-dark(#000000,#990000);" parent="4VEDjEmkF4Wl-3KHhdz3-171" vertex="1">
          <mxGeometry y="60" width="260" height="30" as="geometry" />
        </mxCell>
        <mxCell id="4VEDjEmkF4Wl-3KHhdz3-176" value="&lt;font style=&quot;font-size: 14px;&quot;&gt;FK&lt;/font&gt;" style="shape=partialRectangle;html=1;whiteSpace=wrap;connectable=0;top=0;left=0;bottom=0;right=0;overflow=hidden;pointerEvents=1;fontSize=16;strokeColor=light-dark(#000000,#990000);" parent="4VEDjEmkF4Wl-3KHhdz3-175" vertex="1">
          <mxGeometry width="52" height="30" as="geometry">
            <mxRectangle width="52" height="30" as="alternateBounds" />
          </mxGeometry>
        </mxCell>
        <mxCell id="4VEDjEmkF4Wl-3KHhdz3-177" value="&lt;font style=&quot;font-size: 14px;&quot;&gt;user_id: &lt;b style=&quot;&quot;&gt;INTEGER&lt;/b&gt;&lt;/font&gt;" style="shape=partialRectangle;html=1;whiteSpace=wrap;connectable=0;top=0;left=0;bottom=0;right=0;align=left;spacingLeft=6;overflow=hidden;fontSize=16;strokeColor=light-dark(#000000,#990000);" parent="4VEDjEmkF4Wl-3KHhdz3-175" vertex="1">
          <mxGeometry x="52" width="208" height="30" as="geometry">
            <mxRectangle width="208" height="30" as="alternateBounds" />
          </mxGeometry>
        </mxCell>
        <mxCell id="4VEDjEmkF4Wl-3KHhdz3-178" value="" style="shape=tableRow;horizontal=0;startSize=0;swimlaneHead=0;swimlaneBody=0;top=0;left=0;bottom=0;right=0;collapsible=0;dropTarget=0;points=[[0,0.5],[1,0.5]];portConstraint=eastwest;fontSize=16;strokeColor=light-dark(#000000,#990000);" parent="4VEDjEmkF4Wl-3KHhdz3-171" vertex="1">
          <mxGeometry y="90" width="260" height="30" as="geometry" />
        </mxCell>
        <mxCell id="4VEDjEmkF4Wl-3KHhdz3-179" value="" style="shape=partialRectangle;html=1;whiteSpace=wrap;connectable=0;top=0;left=0;bottom=0;right=0;overflow=hidden;pointerEvents=1;fontSize=16;strokeColor=light-dark(#000000,#990000);" parent="4VEDjEmkF4Wl-3KHhdz3-178" vertex="1">
          <mxGeometry width="52" height="30" as="geometry">
            <mxRectangle width="52" height="30" as="alternateBounds" />
          </mxGeometry>
        </mxCell>
        <mxCell id="4VEDjEmkF4Wl-3KHhdz3-180" value="&lt;font style=&quot;font-size: 14px;&quot;&gt;&amp;nbsp;cardholder_name: &lt;b&gt;VARCHAR&lt;/b&gt;&lt;/font&gt;" style="shape=partialRectangle;html=1;whiteSpace=wrap;connectable=0;top=0;left=0;bottom=0;right=0;align=left;spacingLeft=6;overflow=hidden;fontSize=16;strokeColor=light-dark(#000000,#990000);" parent="4VEDjEmkF4Wl-3KHhdz3-178" vertex="1">
          <mxGeometry x="52" width="208" height="30" as="geometry">
            <mxRectangle width="208" height="30" as="alternateBounds" />
          </mxGeometry>
        </mxCell>
        <mxCell id="4VEDjEmkF4Wl-3KHhdz3-181" value="" style="shape=tableRow;horizontal=0;startSize=0;swimlaneHead=0;swimlaneBody=0;top=0;left=0;bottom=0;right=0;collapsible=0;dropTarget=0;points=[[0,0.5],[1,0.5]];portConstraint=eastwest;fontSize=16;strokeColor=light-dark(#000000,#990000);" parent="4VEDjEmkF4Wl-3KHhdz3-171" vertex="1">
          <mxGeometry y="120" width="260" height="30" as="geometry" />
        </mxCell>
        <mxCell id="4VEDjEmkF4Wl-3KHhdz3-182" value="" style="shape=partialRectangle;html=1;whiteSpace=wrap;connectable=0;top=0;left=0;bottom=0;right=0;overflow=hidden;pointerEvents=1;fontSize=16;strokeColor=light-dark(#000000,#990000);" parent="4VEDjEmkF4Wl-3KHhdz3-181" vertex="1">
          <mxGeometry width="52" height="30" as="geometry">
            <mxRectangle width="52" height="30" as="alternateBounds" />
          </mxGeometry>
        </mxCell>
        <mxCell id="4VEDjEmkF4Wl-3KHhdz3-183" value="&lt;font style=&quot;font-size: 14px;&quot;&gt;card_number: &lt;b&gt;VARCHAR&lt;/b&gt;&lt;/font&gt;" style="shape=partialRectangle;html=1;whiteSpace=wrap;connectable=0;top=0;left=0;bottom=0;right=0;align=left;spacingLeft=6;overflow=hidden;fontSize=16;strokeColor=light-dark(#000000,#990000);" parent="4VEDjEmkF4Wl-3KHhdz3-181" vertex="1">
          <mxGeometry x="52" width="208" height="30" as="geometry">
            <mxRectangle width="208" height="30" as="alternateBounds" />
          </mxGeometry>
        </mxCell>
        <mxCell id="4VEDjEmkF4Wl-3KHhdz3-184" value="" style="shape=tableRow;horizontal=0;startSize=0;swimlaneHead=0;swimlaneBody=0;top=0;left=0;bottom=0;right=0;collapsible=0;dropTarget=0;points=[[0,0.5],[1,0.5]];portConstraint=eastwest;fontSize=16;strokeColor=light-dark(#000000,#990000);" parent="4VEDjEmkF4Wl-3KHhdz3-171" vertex="1">
          <mxGeometry y="150" width="260" height="30" as="geometry" />
        </mxCell>
        <mxCell id="4VEDjEmkF4Wl-3KHhdz3-185" value="" style="shape=partialRectangle;html=1;whiteSpace=wrap;connectable=0;top=0;left=0;bottom=0;right=0;overflow=hidden;pointerEvents=1;fontSize=16;strokeColor=light-dark(#000000,#990000);" parent="4VEDjEmkF4Wl-3KHhdz3-184" vertex="1">
          <mxGeometry width="52" height="30" as="geometry">
            <mxRectangle width="52" height="30" as="alternateBounds" />
          </mxGeometry>
        </mxCell>
        <mxCell id="4VEDjEmkF4Wl-3KHhdz3-186" value="&lt;font style=&quot;font-size: 14px;&quot;&gt;exp_month: &lt;b&gt;SMALLINT&lt;/b&gt;&lt;/font&gt;" style="shape=partialRectangle;html=1;whiteSpace=wrap;connectable=0;top=0;left=0;bottom=0;right=0;align=left;spacingLeft=6;overflow=hidden;fontSize=16;strokeColor=light-dark(#000000,#990000);" parent="4VEDjEmkF4Wl-3KHhdz3-184" vertex="1">
          <mxGeometry x="52" width="208" height="30" as="geometry">
            <mxRectangle width="208" height="30" as="alternateBounds" />
          </mxGeometry>
        </mxCell>
        <mxCell id="4VEDjEmkF4Wl-3KHhdz3-199" value="" style="shape=tableRow;horizontal=0;startSize=0;swimlaneHead=0;swimlaneBody=0;top=0;left=0;bottom=0;right=0;collapsible=0;dropTarget=0;points=[[0,0.5],[1,0.5]];portConstraint=eastwest;fontSize=16;strokeColor=light-dark(#000000,#990000);" parent="4VEDjEmkF4Wl-3KHhdz3-171" vertex="1">
          <mxGeometry y="180" width="260" height="30" as="geometry" />
        </mxCell>
        <mxCell id="4VEDjEmkF4Wl-3KHhdz3-200" value="" style="shape=partialRectangle;html=1;whiteSpace=wrap;connectable=0;top=0;left=0;bottom=0;right=0;overflow=hidden;pointerEvents=1;fontSize=16;strokeColor=light-dark(#000000,#990000);" parent="4VEDjEmkF4Wl-3KHhdz3-199" vertex="1">
          <mxGeometry width="52" height="30" as="geometry">
            <mxRectangle width="52" height="30" as="alternateBounds" />
          </mxGeometry>
        </mxCell>
        <mxCell id="4VEDjEmkF4Wl-3KHhdz3-201" value="&lt;font style=&quot;font-size: 14px;&quot;&gt;exp_year: &lt;b&gt;SMALLINT&lt;/b&gt;&lt;/font&gt;" style="shape=partialRectangle;html=1;whiteSpace=wrap;connectable=0;top=0;left=0;bottom=0;right=0;align=left;spacingLeft=6;overflow=hidden;fontSize=16;strokeColor=light-dark(#000000,#990000);" parent="4VEDjEmkF4Wl-3KHhdz3-199" vertex="1">
          <mxGeometry x="52" width="208" height="30" as="geometry">
            <mxRectangle width="208" height="30" as="alternateBounds" />
          </mxGeometry>
        </mxCell>
        <mxCell id="4VEDjEmkF4Wl-3KHhdz3-205" style="edgeStyle=orthogonalEdgeStyle;rounded=0;orthogonalLoop=1;jettySize=auto;html=1;exitX=1;exitY=0.5;exitDx=0;exitDy=0;entryX=1;entryY=0.5;entryDx=0;entryDy=0;endArrow=ERmandOne;endFill=0;startArrow=ERoneToMany;startFill=0;" parent="1" source="4VEDjEmkF4Wl-3KHhdz3-135" target="4VEDjEmkF4Wl-3KHhdz3-13" edge="1">
          <mxGeometry relative="1" as="geometry">
            <Array as="points">
              <mxPoint x="330" y="685" />
              <mxPoint x="330" y="255" />
            </Array>
          </mxGeometry>
        </mxCell>
        <object label="Order_statuses" уацуа="" id="4VEDjEmkF4Wl-3KHhdz3-206">
          <mxCell style="shape=table;startSize=30;container=1;collapsible=0;childLayout=tableLayout;fixedRows=1;rowLines=0;fontStyle=0;fontSize=16;strokeColor=light-dark(#000000,#009999);" parent="1" vertex="1">
            <mxGeometry x="439.99999999999994" y="700" width="220" height="90" as="geometry" />
          </mxCell>
        </object>
        <mxCell id="4VEDjEmkF4Wl-3KHhdz3-207" value="" style="shape=tableRow;horizontal=0;startSize=0;swimlaneHead=0;swimlaneBody=0;top=0;left=0;bottom=0;right=0;collapsible=0;dropTarget=0;points=[[0,0.5],[1,0.5]];portConstraint=eastwest;fontSize=16;strokeColor=light-dark(#000000,#009999);" parent="4VEDjEmkF4Wl-3KHhdz3-206" vertex="1">
          <mxGeometry y="30" width="220" height="30" as="geometry" />
        </mxCell>
        <mxCell id="4VEDjEmkF4Wl-3KHhdz3-208" value="&lt;font style=&quot;font-size: 14px;&quot;&gt;PK&lt;/font&gt;" style="shape=partialRectangle;html=1;whiteSpace=wrap;connectable=0;top=0;left=0;bottom=0;right=0;overflow=hidden;pointerEvents=1;fontSize=16;strokeColor=light-dark(#000000,#009999);" parent="4VEDjEmkF4Wl-3KHhdz3-207" vertex="1">
          <mxGeometry width="44" height="30" as="geometry">
            <mxRectangle width="44" height="30" as="alternateBounds" />
          </mxGeometry>
        </mxCell>
        <mxCell id="4VEDjEmkF4Wl-3KHhdz3-209" value="&lt;font style=&quot;font-size: 14px;&quot;&gt;status_id: &lt;b&gt;INTEGER&lt;/b&gt;&lt;/font&gt;" style="shape=partialRectangle;html=1;whiteSpace=wrap;connectable=0;top=0;left=0;bottom=0;right=0;align=left;spacingLeft=6;overflow=hidden;fontSize=16;strokeColor=light-dark(#000000,#009999);" parent="4VEDjEmkF4Wl-3KHhdz3-207" vertex="1">
          <mxGeometry x="44" width="176" height="30" as="geometry">
            <mxRectangle width="176" height="30" as="alternateBounds" />
          </mxGeometry>
        </mxCell>
        <mxCell id="4VEDjEmkF4Wl-3KHhdz3-210" value="" style="shape=tableRow;horizontal=0;startSize=0;swimlaneHead=0;swimlaneBody=0;top=0;left=0;bottom=0;right=0;collapsible=0;dropTarget=0;points=[[0,0.5],[1,0.5]];portConstraint=eastwest;fontSize=16;strokeColor=light-dark(#000000,#009999);" parent="4VEDjEmkF4Wl-3KHhdz3-206" vertex="1">
          <mxGeometry y="60" width="220" height="30" as="geometry" />
        </mxCell>
        <mxCell id="4VEDjEmkF4Wl-3KHhdz3-211" value="" style="shape=partialRectangle;html=1;whiteSpace=wrap;connectable=0;top=0;left=0;bottom=0;right=0;overflow=hidden;pointerEvents=1;fontSize=16;strokeColor=light-dark(#000000,#009999);" parent="4VEDjEmkF4Wl-3KHhdz3-210" vertex="1">
          <mxGeometry width="44" height="30" as="geometry">
            <mxRectangle width="44" height="30" as="alternateBounds" />
          </mxGeometry>
        </mxCell>
        <mxCell id="4VEDjEmkF4Wl-3KHhdz3-212" value="&lt;font style=&quot;font-size: 14px;&quot;&gt;status_name: &lt;b style=&quot;&quot;&gt;VARCHAR&lt;/b&gt;&lt;/font&gt;" style="shape=partialRectangle;html=1;whiteSpace=wrap;connectable=0;top=0;left=0;bottom=0;right=0;align=left;spacingLeft=6;overflow=hidden;fontSize=16;strokeColor=light-dark(#000000,#009999);" parent="4VEDjEmkF4Wl-3KHhdz3-210" vertex="1">
          <mxGeometry x="44" width="176" height="30" as="geometry">
            <mxRectangle width="176" height="30" as="alternateBounds" />
          </mxGeometry>
        </mxCell>
        <mxCell id="4VEDjEmkF4Wl-3KHhdz3-246" style="edgeStyle=orthogonalEdgeStyle;rounded=0;orthogonalLoop=1;jettySize=auto;html=1;exitX=1;exitY=0.75;exitDx=0;exitDy=0;entryX=1;entryY=0.5;entryDx=0;entryDy=0;endArrow=ERmandOne;endFill=0;startArrow=ERoneToMany;startFill=0;" parent="1" source="4VEDjEmkF4Wl-3KHhdz3-213" target="4VEDjEmkF4Wl-3KHhdz3-206" edge="1">
          <mxGeometry relative="1" as="geometry" />
        </mxCell>
        <object label="Orders" уацуа="" id="4VEDjEmkF4Wl-3KHhdz3-213">
          <mxCell style="shape=table;startSize=30;container=1;collapsible=0;childLayout=tableLayout;fixedRows=1;rowLines=0;fontStyle=0;fontSize=16;strokeColor=light-dark(#000000,#009999);" parent="1" vertex="1">
            <mxGeometry x="439.99999999999994" y="870" width="220" height="150" as="geometry" />
          </mxCell>
        </object>
        <mxCell id="4VEDjEmkF4Wl-3KHhdz3-214" value="" style="shape=tableRow;horizontal=0;startSize=0;swimlaneHead=0;swimlaneBody=0;top=0;left=0;bottom=0;right=0;collapsible=0;dropTarget=0;points=[[0,0.5],[1,0.5]];portConstraint=eastwest;fontSize=16;strokeColor=light-dark(#000000,#009999);" parent="4VEDjEmkF4Wl-3KHhdz3-213" vertex="1">
          <mxGeometry y="30" width="220" height="30" as="geometry" />
        </mxCell>
        <mxCell id="4VEDjEmkF4Wl-3KHhdz3-215" value="&lt;font style=&quot;font-size: 14px;&quot;&gt;PK&lt;/font&gt;" style="shape=partialRectangle;html=1;whiteSpace=wrap;connectable=0;top=0;left=0;bottom=0;right=0;overflow=hidden;pointerEvents=1;fontSize=16;strokeColor=light-dark(#000000,#009999);" parent="4VEDjEmkF4Wl-3KHhdz3-214" vertex="1">
          <mxGeometry width="44" height="30" as="geometry">
            <mxRectangle width="44" height="30" as="alternateBounds" />
          </mxGeometry>
        </mxCell>
        <mxCell id="4VEDjEmkF4Wl-3KHhdz3-216" value="&lt;font style=&quot;font-size: 14px;&quot;&gt;order_id: &lt;b&gt;INTEGER&lt;/b&gt;&lt;/font&gt;" style="shape=partialRectangle;html=1;whiteSpace=wrap;connectable=0;top=0;left=0;bottom=0;right=0;align=left;spacingLeft=6;overflow=hidden;fontSize=16;strokeColor=light-dark(#000000,#009999);" parent="4VEDjEmkF4Wl-3KHhdz3-214" vertex="1">
          <mxGeometry x="44" width="176" height="30" as="geometry">
            <mxRectangle width="176" height="30" as="alternateBounds" />
          </mxGeometry>
        </mxCell>
        <mxCell id="4VEDjEmkF4Wl-3KHhdz3-220" value="" style="shape=tableRow;horizontal=0;startSize=0;swimlaneHead=0;swimlaneBody=0;top=0;left=0;bottom=0;right=0;collapsible=0;dropTarget=0;points=[[0,0.5],[1,0.5]];portConstraint=eastwest;fontSize=16;strokeColor=light-dark(#000000,#009999);" parent="4VEDjEmkF4Wl-3KHhdz3-213" vertex="1">
          <mxGeometry y="60" width="220" height="30" as="geometry" />
        </mxCell>
        <mxCell id="4VEDjEmkF4Wl-3KHhdz3-221" value="&lt;span style=&quot;font-size: 14px;&quot;&gt;FK&lt;/span&gt;" style="shape=partialRectangle;html=1;whiteSpace=wrap;connectable=0;top=0;left=0;bottom=0;right=0;overflow=hidden;pointerEvents=1;fontSize=16;strokeColor=light-dark(#000000,#009999);" parent="4VEDjEmkF4Wl-3KHhdz3-220" vertex="1">
          <mxGeometry width="44" height="30" as="geometry">
            <mxRectangle width="44" height="30" as="alternateBounds" />
          </mxGeometry>
        </mxCell>
        <mxCell id="4VEDjEmkF4Wl-3KHhdz3-222" value="&lt;font style=&quot;font-size: 14px;&quot;&gt;user_id: &lt;b&gt;INTEGER&lt;/b&gt;&lt;/font&gt;" style="shape=partialRectangle;html=1;whiteSpace=wrap;connectable=0;top=0;left=0;bottom=0;right=0;align=left;spacingLeft=6;overflow=hidden;fontSize=16;strokeColor=light-dark(#000000,#009999);" parent="4VEDjEmkF4Wl-3KHhdz3-220" vertex="1">
          <mxGeometry x="44" width="176" height="30" as="geometry">
            <mxRectangle width="176" height="30" as="alternateBounds" />
          </mxGeometry>
        </mxCell>
        <mxCell id="4VEDjEmkF4Wl-3KHhdz3-223" value="" style="shape=tableRow;horizontal=0;startSize=0;swimlaneHead=0;swimlaneBody=0;top=0;left=0;bottom=0;right=0;collapsible=0;dropTarget=0;points=[[0,0.5],[1,0.5]];portConstraint=eastwest;fontSize=16;strokeColor=light-dark(#000000,#009999);" parent="4VEDjEmkF4Wl-3KHhdz3-213" vertex="1">
          <mxGeometry y="90" width="220" height="30" as="geometry" />
        </mxCell>
        <mxCell id="4VEDjEmkF4Wl-3KHhdz3-224" value="&lt;font style=&quot;font-size: 14px;&quot;&gt;FK&lt;/font&gt;" style="shape=partialRectangle;html=1;whiteSpace=wrap;connectable=0;top=0;left=0;bottom=0;right=0;overflow=hidden;pointerEvents=1;fontSize=16;strokeColor=light-dark(#000000,#009999);" parent="4VEDjEmkF4Wl-3KHhdz3-223" vertex="1">
          <mxGeometry width="44" height="30" as="geometry">
            <mxRectangle width="44" height="30" as="alternateBounds" />
          </mxGeometry>
        </mxCell>
        <mxCell id="4VEDjEmkF4Wl-3KHhdz3-225" value="&lt;font style=&quot;font-size: 14px;&quot;&gt;status_id: &lt;b&gt;INTEGER&lt;/b&gt;&lt;/font&gt;" style="shape=partialRectangle;html=1;whiteSpace=wrap;connectable=0;top=0;left=0;bottom=0;right=0;align=left;spacingLeft=6;overflow=hidden;fontSize=16;strokeColor=light-dark(#000000,#009999);" parent="4VEDjEmkF4Wl-3KHhdz3-223" vertex="1">
          <mxGeometry x="44" width="176" height="30" as="geometry">
            <mxRectangle width="176" height="30" as="alternateBounds" />
          </mxGeometry>
        </mxCell>
        <mxCell id="4VEDjEmkF4Wl-3KHhdz3-226" value="" style="shape=tableRow;horizontal=0;startSize=0;swimlaneHead=0;swimlaneBody=0;top=0;left=0;bottom=0;right=0;collapsible=0;dropTarget=0;points=[[0,0.5],[1,0.5]];portConstraint=eastwest;fontSize=16;strokeColor=light-dark(#000000,#009999);" parent="4VEDjEmkF4Wl-3KHhdz3-213" vertex="1">
          <mxGeometry y="120" width="220" height="30" as="geometry" />
        </mxCell>
        <mxCell id="4VEDjEmkF4Wl-3KHhdz3-227" value="" style="shape=partialRectangle;html=1;whiteSpace=wrap;connectable=0;top=0;left=0;bottom=0;right=0;overflow=hidden;pointerEvents=1;fontSize=16;strokeColor=light-dark(#000000,#009999);" parent="4VEDjEmkF4Wl-3KHhdz3-226" vertex="1">
          <mxGeometry width="44" height="30" as="geometry">
            <mxRectangle width="44" height="30" as="alternateBounds" />
          </mxGeometry>
        </mxCell>
        <mxCell id="4VEDjEmkF4Wl-3KHhdz3-228" value="&lt;font style=&quot;font-size: 14px;&quot;&gt;order_ts: &lt;b&gt;TIMESTAMPTZ&lt;/b&gt;&lt;/font&gt;" style="shape=partialRectangle;html=1;whiteSpace=wrap;connectable=0;top=0;left=0;bottom=0;right=0;align=left;spacingLeft=6;overflow=hidden;fontSize=16;strokeColor=light-dark(#000000,#009999);" parent="4VEDjEmkF4Wl-3KHhdz3-226" vertex="1">
          <mxGeometry x="44" width="176" height="30" as="geometry">
            <mxRectangle width="176" height="30" as="alternateBounds" />
          </mxGeometry>
        </mxCell>
        <object label="Order_items" уацуа="" id="4VEDjEmkF4Wl-3KHhdz3-229">
          <mxCell style="shape=table;startSize=30;container=1;collapsible=0;childLayout=tableLayout;fixedRows=1;rowLines=0;fontStyle=0;fontSize=16;strokeColor=light-dark(#000000,#009999);" parent="1" vertex="1">
            <mxGeometry x="439.99999999999994" y="1100" width="220" height="150" as="geometry" />
          </mxCell>
        </object>
        <mxCell id="4VEDjEmkF4Wl-3KHhdz3-230" value="" style="shape=tableRow;horizontal=0;startSize=0;swimlaneHead=0;swimlaneBody=0;top=0;left=0;bottom=0;right=0;collapsible=0;dropTarget=0;points=[[0,0.5],[1,0.5]];portConstraint=eastwest;fontSize=16;strokeColor=light-dark(#000000,#009999);" parent="4VEDjEmkF4Wl-3KHhdz3-229" vertex="1">
          <mxGeometry y="30" width="220" height="30" as="geometry" />
        </mxCell>
        <mxCell id="4VEDjEmkF4Wl-3KHhdz3-231" value="&lt;font style=&quot;font-size: 14px;&quot;&gt;PK&lt;/font&gt;" style="shape=partialRectangle;html=1;whiteSpace=wrap;connectable=0;top=0;left=0;bottom=0;right=0;overflow=hidden;pointerEvents=1;fontSize=16;strokeColor=light-dark(#000000,#009999);" parent="4VEDjEmkF4Wl-3KHhdz3-230" vertex="1">
          <mxGeometry width="44" height="30" as="geometry">
            <mxRectangle width="44" height="30" as="alternateBounds" />
          </mxGeometry>
        </mxCell>
        <mxCell id="4VEDjEmkF4Wl-3KHhdz3-232" value="&lt;font style=&quot;font-size: 14px;&quot;&gt;order_item_id: &lt;b&gt;INTEGER&lt;/b&gt;&lt;/font&gt;" style="shape=partialRectangle;html=1;whiteSpace=wrap;connectable=0;top=0;left=0;bottom=0;right=0;align=left;spacingLeft=6;overflow=hidden;fontSize=16;strokeColor=light-dark(#000000,#009999);" parent="4VEDjEmkF4Wl-3KHhdz3-230" vertex="1">
          <mxGeometry x="44" width="176" height="30" as="geometry">
            <mxRectangle width="176" height="30" as="alternateBounds" />
          </mxGeometry>
        </mxCell>
        <mxCell id="4VEDjEmkF4Wl-3KHhdz3-233" value="" style="shape=tableRow;horizontal=0;startSize=0;swimlaneHead=0;swimlaneBody=0;top=0;left=0;bottom=0;right=0;collapsible=0;dropTarget=0;points=[[0,0.5],[1,0.5]];portConstraint=eastwest;fontSize=16;strokeColor=light-dark(#000000,#009999);" parent="4VEDjEmkF4Wl-3KHhdz3-229" vertex="1">
          <mxGeometry y="60" width="220" height="30" as="geometry" />
        </mxCell>
        <mxCell id="4VEDjEmkF4Wl-3KHhdz3-234" value="&lt;span style=&quot;font-size: 14px;&quot;&gt;FK&lt;/span&gt;" style="shape=partialRectangle;html=1;whiteSpace=wrap;connectable=0;top=0;left=0;bottom=0;right=0;overflow=hidden;pointerEvents=1;fontSize=16;strokeColor=light-dark(#000000,#009999);" parent="4VEDjEmkF4Wl-3KHhdz3-233" vertex="1">
          <mxGeometry width="44" height="30" as="geometry">
            <mxRectangle width="44" height="30" as="alternateBounds" />
          </mxGeometry>
        </mxCell>
        <mxCell id="4VEDjEmkF4Wl-3KHhdz3-235" value="&lt;font style=&quot;font-size: 14px;&quot;&gt;order_id: &lt;b&gt;INTEGER&lt;/b&gt;&lt;/font&gt;" style="shape=partialRectangle;html=1;whiteSpace=wrap;connectable=0;top=0;left=0;bottom=0;right=0;align=left;spacingLeft=6;overflow=hidden;fontSize=16;strokeColor=light-dark(#000000,#009999);" parent="4VEDjEmkF4Wl-3KHhdz3-233" vertex="1">
          <mxGeometry x="44" width="176" height="30" as="geometry">
            <mxRectangle width="176" height="30" as="alternateBounds" />
          </mxGeometry>
        </mxCell>
        <mxCell id="4VEDjEmkF4Wl-3KHhdz3-236" value="" style="shape=tableRow;horizontal=0;startSize=0;swimlaneHead=0;swimlaneBody=0;top=0;left=0;bottom=0;right=0;collapsible=0;dropTarget=0;points=[[0,0.5],[1,0.5]];portConstraint=eastwest;fontSize=16;strokeColor=light-dark(#000000,#009999);" parent="4VEDjEmkF4Wl-3KHhdz3-229" vertex="1">
          <mxGeometry y="90" width="220" height="30" as="geometry" />
        </mxCell>
        <mxCell id="4VEDjEmkF4Wl-3KHhdz3-237" value="&lt;font style=&quot;font-size: 14px;&quot;&gt;FK&lt;/font&gt;" style="shape=partialRectangle;html=1;whiteSpace=wrap;connectable=0;top=0;left=0;bottom=0;right=0;overflow=hidden;pointerEvents=1;fontSize=16;strokeColor=light-dark(#000000,#009999);" parent="4VEDjEmkF4Wl-3KHhdz3-236" vertex="1">
          <mxGeometry width="44" height="30" as="geometry">
            <mxRectangle width="44" height="30" as="alternateBounds" />
          </mxGeometry>
        </mxCell>
        <mxCell id="4VEDjEmkF4Wl-3KHhdz3-238" value="&lt;font style=&quot;font-size: 14px;&quot;&gt;product_id: &lt;b&gt;INTEGER&lt;/b&gt;&lt;/font&gt;" style="shape=partialRectangle;html=1;whiteSpace=wrap;connectable=0;top=0;left=0;bottom=0;right=0;align=left;spacingLeft=6;overflow=hidden;fontSize=16;strokeColor=light-dark(#000000,#009999);" parent="4VEDjEmkF4Wl-3KHhdz3-236" vertex="1">
          <mxGeometry x="44" width="176" height="30" as="geometry">
            <mxRectangle width="176" height="30" as="alternateBounds" />
          </mxGeometry>
        </mxCell>
        <mxCell id="4VEDjEmkF4Wl-3KHhdz3-239" value="" style="shape=tableRow;horizontal=0;startSize=0;swimlaneHead=0;swimlaneBody=0;top=0;left=0;bottom=0;right=0;collapsible=0;dropTarget=0;points=[[0,0.5],[1,0.5]];portConstraint=eastwest;fontSize=16;strokeColor=light-dark(#000000,#009999);" parent="4VEDjEmkF4Wl-3KHhdz3-229" vertex="1">
          <mxGeometry y="120" width="220" height="30" as="geometry" />
        </mxCell>
        <mxCell id="4VEDjEmkF4Wl-3KHhdz3-240" value="" style="shape=partialRectangle;html=1;whiteSpace=wrap;connectable=0;top=0;left=0;bottom=0;right=0;overflow=hidden;pointerEvents=1;fontSize=16;strokeColor=light-dark(#000000,#009999);" parent="4VEDjEmkF4Wl-3KHhdz3-239" vertex="1">
          <mxGeometry width="44" height="30" as="geometry">
            <mxRectangle width="44" height="30" as="alternateBounds" />
          </mxGeometry>
        </mxCell>
        <mxCell id="4VEDjEmkF4Wl-3KHhdz3-241" value="&lt;font style=&quot;font-size: 14px;&quot;&gt;quantity: &lt;b&gt;INTEGER&lt;/b&gt;&lt;/font&gt;" style="shape=partialRectangle;html=1;whiteSpace=wrap;connectable=0;top=0;left=0;bottom=0;right=0;align=left;spacingLeft=6;overflow=hidden;fontSize=16;strokeColor=light-dark(#000000,#009999);" parent="4VEDjEmkF4Wl-3KHhdz3-239" vertex="1">
          <mxGeometry x="44" width="176" height="30" as="geometry">
            <mxRectangle width="176" height="30" as="alternateBounds" />
          </mxGeometry>
        </mxCell>
        <mxCell id="4VEDjEmkF4Wl-3KHhdz3-245" style="edgeStyle=orthogonalEdgeStyle;rounded=0;orthogonalLoop=1;jettySize=auto;html=1;entryX=1;entryY=0.5;entryDx=0;entryDy=0;endArrow=ERmandOne;endFill=0;startArrow=ERoneToMany;startFill=0;exitX=0;exitY=0.5;exitDx=0;exitDy=0;" parent="1" source="4VEDjEmkF4Wl-3KHhdz3-220" target="4VEDjEmkF4Wl-3KHhdz3-13" edge="1">
          <mxGeometry relative="1" as="geometry">
            <mxPoint x="390" y="940" as="sourcePoint" />
            <Array as="points">
              <mxPoint x="390" y="945" />
              <mxPoint x="390" y="255" />
            </Array>
          </mxGeometry>
        </mxCell>
        <mxCell id="4VEDjEmkF4Wl-3KHhdz3-247" style="edgeStyle=orthogonalEdgeStyle;rounded=0;orthogonalLoop=1;jettySize=auto;html=1;exitX=1;exitY=0.5;exitDx=0;exitDy=0;entryX=1;entryY=0.5;entryDx=0;entryDy=0;endArrow=ERmandOne;endFill=0;startArrow=ERoneToMany;startFill=0;" parent="1" source="4VEDjEmkF4Wl-3KHhdz3-233" target="4VEDjEmkF4Wl-3KHhdz3-214" edge="1">
          <mxGeometry relative="1" as="geometry">
            <Array as="points">
              <mxPoint x="700" y="1175" />
              <mxPoint x="700" y="915" />
            </Array>
          </mxGeometry>
        </mxCell>
        <mxCell id="4VEDjEmkF4Wl-3KHhdz3-248" style="edgeStyle=orthogonalEdgeStyle;rounded=0;orthogonalLoop=1;jettySize=auto;html=1;exitX=1;exitY=0.5;exitDx=0;exitDy=0;entryX=1;entryY=0.5;entryDx=0;entryDy=0;endArrow=ERmandOne;endFill=0;startArrow=ERoneToMany;startFill=0;" parent="1" source="4VEDjEmkF4Wl-3KHhdz3-236" target="4VEDjEmkF4Wl-3KHhdz3-45" edge="1">
          <mxGeometry relative="1" as="geometry">
            <Array as="points">
              <mxPoint x="720" y="1205" />
              <mxPoint x="720" y="410" />
            </Array>
          </mxGeometry>
        </mxCell>
        <object label="Countries" уацуа="" id="4VEDjEmkF4Wl-3KHhdz3-249">
          <mxCell style="shape=table;startSize=30;container=1;collapsible=0;childLayout=tableLayout;fixedRows=1;rowLines=0;fontStyle=0;fontSize=16;strokeColor=light-dark(#000000,#004C99);" parent="1" vertex="1">
            <mxGeometry x="800" y="50" width="220" height="90" as="geometry" />
          </mxCell>
        </object>
        <mxCell id="4VEDjEmkF4Wl-3KHhdz3-250" value="" style="shape=tableRow;horizontal=0;startSize=0;swimlaneHead=0;swimlaneBody=0;top=0;left=0;bottom=0;right=0;collapsible=0;dropTarget=0;points=[[0,0.5],[1,0.5]];portConstraint=eastwest;fontSize=16;strokeColor=light-dark(#000000,#990000);" parent="4VEDjEmkF4Wl-3KHhdz3-249" vertex="1">
          <mxGeometry y="30" width="220" height="30" as="geometry" />
        </mxCell>
        <mxCell id="4VEDjEmkF4Wl-3KHhdz3-251" value="&lt;font style=&quot;font-size: 14px;&quot;&gt;PK&lt;/font&gt;" style="shape=partialRectangle;html=1;whiteSpace=wrap;connectable=0;top=0;left=0;bottom=0;right=0;overflow=hidden;pointerEvents=1;fontSize=16;strokeColor=light-dark(#000000,#990000);" parent="4VEDjEmkF4Wl-3KHhdz3-250" vertex="1">
          <mxGeometry width="44" height="30" as="geometry">
            <mxRectangle width="44" height="30" as="alternateBounds" />
          </mxGeometry>
        </mxCell>
        <mxCell id="4VEDjEmkF4Wl-3KHhdz3-252" value="&lt;font style=&quot;font-size: 14px;&quot;&gt;country_id: &lt;b&gt;INTEGER&lt;/b&gt;&lt;/font&gt;" style="shape=partialRectangle;html=1;whiteSpace=wrap;connectable=0;top=0;left=0;bottom=0;right=0;align=left;spacingLeft=6;overflow=hidden;fontSize=16;strokeColor=light-dark(#000000,#990000);" parent="4VEDjEmkF4Wl-3KHhdz3-250" vertex="1">
          <mxGeometry x="44" width="176" height="30" as="geometry">
            <mxRectangle width="176" height="30" as="alternateBounds" />
          </mxGeometry>
        </mxCell>
        <mxCell id="4VEDjEmkF4Wl-3KHhdz3-253" value="" style="shape=tableRow;horizontal=0;startSize=0;swimlaneHead=0;swimlaneBody=0;top=0;left=0;bottom=0;right=0;collapsible=0;dropTarget=0;points=[[0,0.5],[1,0.5]];portConstraint=eastwest;fontSize=16;strokeColor=light-dark(#000000,#990000);" parent="4VEDjEmkF4Wl-3KHhdz3-249" vertex="1">
          <mxGeometry y="60" width="220" height="30" as="geometry" />
        </mxCell>
        <mxCell id="4VEDjEmkF4Wl-3KHhdz3-254" value="" style="shape=partialRectangle;html=1;whiteSpace=wrap;connectable=0;top=0;left=0;bottom=0;right=0;overflow=hidden;pointerEvents=1;fontSize=16;strokeColor=light-dark(#000000,#990000);" parent="4VEDjEmkF4Wl-3KHhdz3-253" vertex="1">
          <mxGeometry width="44" height="30" as="geometry">
            <mxRectangle width="44" height="30" as="alternateBounds" />
          </mxGeometry>
        </mxCell>
        <mxCell id="4VEDjEmkF4Wl-3KHhdz3-255" value="&lt;font style=&quot;font-size: 14px;&quot;&gt;country_name: &lt;b style=&quot;&quot;&gt;VARCHAR&lt;/b&gt;&lt;/font&gt;" style="shape=partialRectangle;html=1;whiteSpace=wrap;connectable=0;top=0;left=0;bottom=0;right=0;align=left;spacingLeft=6;overflow=hidden;fontSize=16;strokeColor=light-dark(#000000,#990000);" parent="4VEDjEmkF4Wl-3KHhdz3-253" vertex="1">
          <mxGeometry x="44" width="176" height="30" as="geometry">
            <mxRectangle width="176" height="30" as="alternateBounds" />
          </mxGeometry>
        </mxCell>
        <mxCell id="4VEDjEmkF4Wl-3KHhdz3-259" style="edgeStyle=orthogonalEdgeStyle;rounded=0;orthogonalLoop=1;jettySize=auto;html=1;entryX=0;entryY=0.5;entryDx=0;entryDy=0;endArrow=ERmandOne;endFill=0;startArrow=ERoneToMany;startFill=0;exitX=0;exitY=0.5;exitDx=0;exitDy=0;" parent="1" source="4VEDjEmkF4Wl-3KHhdz3-175" target="4VEDjEmkF4Wl-3KHhdz3-13" edge="1">
          <mxGeometry relative="1" as="geometry">
            <mxPoint x="30" y="1100" as="sourcePoint" />
            <Array as="points">
              <mxPoint x="10" y="1115" />
              <mxPoint x="10" y="255" />
            </Array>
          </mxGeometry>
        </mxCell>
        <mxCell id="4VEDjEmkF4Wl-3KHhdz3-274" style="edgeStyle=orthogonalEdgeStyle;rounded=0;orthogonalLoop=1;jettySize=auto;html=1;exitX=0;exitY=0.5;exitDx=0;exitDy=0;entryX=0;entryY=0.5;entryDx=0;entryDy=0;endArrow=ERmandOne;endFill=0;startArrow=ERoneToMany;startFill=0;" parent="1" source="4VEDjEmkF4Wl-3KHhdz3-260" target="4VEDjEmkF4Wl-3KHhdz3-249" edge="1">
          <mxGeometry relative="1" as="geometry" />
        </mxCell>
        <object label="Warehouses" уацуа="" id="4VEDjEmkF4Wl-3KHhdz3-260">
          <mxCell style="shape=table;startSize=30;container=1;collapsible=0;childLayout=tableLayout;fixedRows=1;rowLines=0;fontStyle=0;fontSize=16;strokeColor=light-dark(#000000,#004C99);" parent="1" vertex="1">
            <mxGeometry x="800" y="210" width="220" height="150" as="geometry" />
          </mxCell>
        </object>
        <mxCell id="4VEDjEmkF4Wl-3KHhdz3-261" value="" style="shape=tableRow;horizontal=0;startSize=0;swimlaneHead=0;swimlaneBody=0;top=0;left=0;bottom=0;right=0;collapsible=0;dropTarget=0;points=[[0,0.5],[1,0.5]];portConstraint=eastwest;fontSize=16;strokeColor=light-dark(#000000,#990000);" parent="4VEDjEmkF4Wl-3KHhdz3-260" vertex="1">
          <mxGeometry y="30" width="220" height="30" as="geometry" />
        </mxCell>
        <mxCell id="4VEDjEmkF4Wl-3KHhdz3-262" value="&lt;font style=&quot;font-size: 14px;&quot;&gt;PK&lt;/font&gt;" style="shape=partialRectangle;html=1;whiteSpace=wrap;connectable=0;top=0;left=0;bottom=0;right=0;overflow=hidden;pointerEvents=1;fontSize=16;strokeColor=light-dark(#000000,#990000);" parent="4VEDjEmkF4Wl-3KHhdz3-261" vertex="1">
          <mxGeometry width="44" height="30" as="geometry">
            <mxRectangle width="44" height="30" as="alternateBounds" />
          </mxGeometry>
        </mxCell>
        <mxCell id="4VEDjEmkF4Wl-3KHhdz3-263" value="&lt;font style=&quot;font-size: 14px;&quot;&gt;warehouse_id: &lt;b&gt;INTEGER&lt;/b&gt;&lt;/font&gt;" style="shape=partialRectangle;html=1;whiteSpace=wrap;connectable=0;top=0;left=0;bottom=0;right=0;align=left;spacingLeft=6;overflow=hidden;fontSize=16;strokeColor=light-dark(#000000,#990000);" parent="4VEDjEmkF4Wl-3KHhdz3-261" vertex="1">
          <mxGeometry x="44" width="176" height="30" as="geometry">
            <mxRectangle width="176" height="30" as="alternateBounds" />
          </mxGeometry>
        </mxCell>
        <mxCell id="4VEDjEmkF4Wl-3KHhdz3-264" value="" style="shape=tableRow;horizontal=0;startSize=0;swimlaneHead=0;swimlaneBody=0;top=0;left=0;bottom=0;right=0;collapsible=0;dropTarget=0;points=[[0,0.5],[1,0.5]];portConstraint=eastwest;fontSize=16;strokeColor=light-dark(#000000,#990000);" parent="4VEDjEmkF4Wl-3KHhdz3-260" vertex="1">
          <mxGeometry y="60" width="220" height="30" as="geometry" />
        </mxCell>
        <mxCell id="4VEDjEmkF4Wl-3KHhdz3-265" value="&lt;font style=&quot;font-size: 14px;&quot;&gt;FK&lt;/font&gt;" style="shape=partialRectangle;html=1;whiteSpace=wrap;connectable=0;top=0;left=0;bottom=0;right=0;overflow=hidden;pointerEvents=1;fontSize=16;strokeColor=light-dark(#000000,#990000);" parent="4VEDjEmkF4Wl-3KHhdz3-264" vertex="1">
          <mxGeometry width="44" height="30" as="geometry">
            <mxRectangle width="44" height="30" as="alternateBounds" />
          </mxGeometry>
        </mxCell>
        <mxCell id="4VEDjEmkF4Wl-3KHhdz3-266" value="&lt;font style=&quot;font-size: 14px;&quot;&gt;country_id: &lt;b&gt;INTEGER&lt;/b&gt;&lt;/font&gt;" style="shape=partialRectangle;html=1;whiteSpace=wrap;connectable=0;top=0;left=0;bottom=0;right=0;align=left;spacingLeft=6;overflow=hidden;fontSize=16;strokeColor=light-dark(#000000,#990000);" parent="4VEDjEmkF4Wl-3KHhdz3-264" vertex="1">
          <mxGeometry x="44" width="176" height="30" as="geometry">
            <mxRectangle width="176" height="30" as="alternateBounds" />
          </mxGeometry>
        </mxCell>
        <mxCell id="4VEDjEmkF4Wl-3KHhdz3-267" value="" style="shape=tableRow;horizontal=0;startSize=0;swimlaneHead=0;swimlaneBody=0;top=0;left=0;bottom=0;right=0;collapsible=0;dropTarget=0;points=[[0,0.5],[1,0.5]];portConstraint=eastwest;fontSize=16;strokeColor=light-dark(#000000,#990000);" parent="4VEDjEmkF4Wl-3KHhdz3-260" vertex="1">
          <mxGeometry y="90" width="220" height="30" as="geometry" />
        </mxCell>
        <mxCell id="4VEDjEmkF4Wl-3KHhdz3-268" value="" style="shape=partialRectangle;html=1;whiteSpace=wrap;connectable=0;top=0;left=0;bottom=0;right=0;overflow=hidden;pointerEvents=1;fontSize=16;strokeColor=light-dark(#000000,#990000);" parent="4VEDjEmkF4Wl-3KHhdz3-267" vertex="1">
          <mxGeometry width="44" height="30" as="geometry">
            <mxRectangle width="44" height="30" as="alternateBounds" />
          </mxGeometry>
        </mxCell>
        <mxCell id="4VEDjEmkF4Wl-3KHhdz3-269" value="&lt;font style=&quot;font-size: 14px;&quot;&gt;name: &lt;b style=&quot;&quot;&gt;VARCHAR&lt;/b&gt;&lt;/font&gt;" style="shape=partialRectangle;html=1;whiteSpace=wrap;connectable=0;top=0;left=0;bottom=0;right=0;align=left;spacingLeft=6;overflow=hidden;fontSize=16;strokeColor=light-dark(#000000,#990000);" parent="4VEDjEmkF4Wl-3KHhdz3-267" vertex="1">
          <mxGeometry x="44" width="176" height="30" as="geometry">
            <mxRectangle width="176" height="30" as="alternateBounds" />
          </mxGeometry>
        </mxCell>
        <mxCell id="4VEDjEmkF4Wl-3KHhdz3-270" value="" style="shape=tableRow;horizontal=0;startSize=0;swimlaneHead=0;swimlaneBody=0;top=0;left=0;bottom=0;right=0;collapsible=0;dropTarget=0;points=[[0,0.5],[1,0.5]];portConstraint=eastwest;fontSize=16;strokeColor=light-dark(#000000,#990000);" parent="4VEDjEmkF4Wl-3KHhdz3-260" vertex="1">
          <mxGeometry y="120" width="220" height="30" as="geometry" />
        </mxCell>
        <mxCell id="4VEDjEmkF4Wl-3KHhdz3-271" value="" style="shape=partialRectangle;html=1;whiteSpace=wrap;connectable=0;top=0;left=0;bottom=0;right=0;overflow=hidden;pointerEvents=1;fontSize=16;strokeColor=light-dark(#000000,#990000);" parent="4VEDjEmkF4Wl-3KHhdz3-270" vertex="1">
          <mxGeometry width="44" height="30" as="geometry">
            <mxRectangle width="44" height="30" as="alternateBounds" />
          </mxGeometry>
        </mxCell>
        <mxCell id="4VEDjEmkF4Wl-3KHhdz3-272" value="&lt;font style=&quot;font-size: 14px;&quot;&gt;capacity: &lt;b&gt;INTEGER&lt;/b&gt;&lt;/font&gt;" style="shape=partialRectangle;html=1;whiteSpace=wrap;connectable=0;top=0;left=0;bottom=0;right=0;align=left;spacingLeft=6;overflow=hidden;fontSize=16;strokeColor=light-dark(#000000,#990000);" parent="4VEDjEmkF4Wl-3KHhdz3-270" vertex="1">
          <mxGeometry x="44" width="176" height="30" as="geometry">
            <mxRectangle width="176" height="30" as="alternateBounds" />
          </mxGeometry>
        </mxCell>
        <object label="Warehouses_products" уацуа="" id="4VEDjEmkF4Wl-3KHhdz3-275">
          <mxCell style="shape=table;startSize=30;container=1;collapsible=0;childLayout=tableLayout;fixedRows=1;rowLines=0;fontStyle=0;fontSize=16;strokeColor=light-dark(#000000,#004C99);" parent="1" vertex="1">
            <mxGeometry x="790" y="440" width="240" height="150" as="geometry" />
          </mxCell>
        </object>
        <mxCell id="4VEDjEmkF4Wl-3KHhdz3-276" value="" style="shape=tableRow;horizontal=0;startSize=0;swimlaneHead=0;swimlaneBody=0;top=0;left=0;bottom=0;right=0;collapsible=0;dropTarget=0;points=[[0,0.5],[1,0.5]];portConstraint=eastwest;fontSize=16;strokeColor=light-dark(#000000,#990000);" parent="4VEDjEmkF4Wl-3KHhdz3-275" vertex="1">
          <mxGeometry y="30" width="240" height="30" as="geometry" />
        </mxCell>
        <mxCell id="4VEDjEmkF4Wl-3KHhdz3-277" value="&lt;span style=&quot;font-size: 14px;&quot;&gt;FK&lt;/span&gt;" style="shape=partialRectangle;html=1;whiteSpace=wrap;connectable=0;top=0;left=0;bottom=0;right=0;overflow=hidden;pointerEvents=1;fontSize=16;strokeColor=light-dark(#000000,#990000);" parent="4VEDjEmkF4Wl-3KHhdz3-276" vertex="1">
          <mxGeometry width="48" height="30" as="geometry">
            <mxRectangle width="48" height="30" as="alternateBounds" />
          </mxGeometry>
        </mxCell>
        <mxCell id="4VEDjEmkF4Wl-3KHhdz3-278" value="&lt;font style=&quot;font-size: 14px;&quot;&gt;warehouse_id: &lt;b&gt;INTEGER&lt;/b&gt;&lt;/font&gt;" style="shape=partialRectangle;html=1;whiteSpace=wrap;connectable=0;top=0;left=0;bottom=0;right=0;align=left;spacingLeft=6;overflow=hidden;fontSize=16;strokeColor=light-dark(#000000,#990000);" parent="4VEDjEmkF4Wl-3KHhdz3-276" vertex="1">
          <mxGeometry x="48" width="192" height="30" as="geometry">
            <mxRectangle width="192" height="30" as="alternateBounds" />
          </mxGeometry>
        </mxCell>
        <mxCell id="4VEDjEmkF4Wl-3KHhdz3-279" value="" style="shape=tableRow;horizontal=0;startSize=0;swimlaneHead=0;swimlaneBody=0;top=0;left=0;bottom=0;right=0;collapsible=0;dropTarget=0;points=[[0,0.5],[1,0.5]];portConstraint=eastwest;fontSize=16;strokeColor=light-dark(#000000,#990000);" parent="4VEDjEmkF4Wl-3KHhdz3-275" vertex="1">
          <mxGeometry y="60" width="240" height="30" as="geometry" />
        </mxCell>
        <mxCell id="4VEDjEmkF4Wl-3KHhdz3-280" value="&lt;font style=&quot;font-size: 14px;&quot;&gt;FK&lt;/font&gt;" style="shape=partialRectangle;html=1;whiteSpace=wrap;connectable=0;top=0;left=0;bottom=0;right=0;overflow=hidden;pointerEvents=1;fontSize=16;strokeColor=light-dark(#000000,#990000);" parent="4VEDjEmkF4Wl-3KHhdz3-279" vertex="1">
          <mxGeometry width="48" height="30" as="geometry">
            <mxRectangle width="48" height="30" as="alternateBounds" />
          </mxGeometry>
        </mxCell>
        <mxCell id="4VEDjEmkF4Wl-3KHhdz3-281" value="&lt;font style=&quot;font-size: 14px;&quot;&gt;product_id: &lt;b&gt;INTEGER&lt;/b&gt;&lt;/font&gt;" style="shape=partialRectangle;html=1;whiteSpace=wrap;connectable=0;top=0;left=0;bottom=0;right=0;align=left;spacingLeft=6;overflow=hidden;fontSize=16;strokeColor=light-dark(#000000,#990000);" parent="4VEDjEmkF4Wl-3KHhdz3-279" vertex="1">
          <mxGeometry x="48" width="192" height="30" as="geometry">
            <mxRectangle width="192" height="30" as="alternateBounds" />
          </mxGeometry>
        </mxCell>
        <mxCell id="4VEDjEmkF4Wl-3KHhdz3-282" value="" style="shape=tableRow;horizontal=0;startSize=0;swimlaneHead=0;swimlaneBody=0;top=0;left=0;bottom=0;right=0;collapsible=0;dropTarget=0;points=[[0,0.5],[1,0.5]];portConstraint=eastwest;fontSize=16;strokeColor=light-dark(#000000,#990000);" parent="4VEDjEmkF4Wl-3KHhdz3-275" vertex="1">
          <mxGeometry y="90" width="240" height="30" as="geometry" />
        </mxCell>
        <mxCell id="4VEDjEmkF4Wl-3KHhdz3-283" value="&lt;font style=&quot;font-size: 14px;&quot;&gt;PK&lt;/font&gt;" style="shape=partialRectangle;html=1;whiteSpace=wrap;connectable=0;top=0;left=0;bottom=0;right=0;overflow=hidden;pointerEvents=1;fontSize=16;strokeColor=light-dark(#000000,#990000);" parent="4VEDjEmkF4Wl-3KHhdz3-282" vertex="1">
          <mxGeometry width="48" height="30" as="geometry">
            <mxRectangle width="48" height="30" as="alternateBounds" />
          </mxGeometry>
        </mxCell>
        <mxCell id="4VEDjEmkF4Wl-3KHhdz3-284" value="&lt;span style=&quot;font-size: 14px;&quot;&gt;(warehouse_id, product_id)&lt;/span&gt;" style="shape=partialRectangle;html=1;whiteSpace=wrap;connectable=0;top=0;left=0;bottom=0;right=0;align=left;spacingLeft=6;overflow=hidden;fontSize=16;strokeColor=light-dark(#000000,#990000);" parent="4VEDjEmkF4Wl-3KHhdz3-282" vertex="1">
          <mxGeometry x="48" width="192" height="30" as="geometry">
            <mxRectangle width="192" height="30" as="alternateBounds" />
          </mxGeometry>
        </mxCell>
        <mxCell id="4VEDjEmkF4Wl-3KHhdz3-285" value="" style="shape=tableRow;horizontal=0;startSize=0;swimlaneHead=0;swimlaneBody=0;top=0;left=0;bottom=0;right=0;collapsible=0;dropTarget=0;points=[[0,0.5],[1,0.5]];portConstraint=eastwest;fontSize=16;strokeColor=light-dark(#000000,#990000);" parent="4VEDjEmkF4Wl-3KHhdz3-275" vertex="1">
          <mxGeometry y="120" width="240" height="30" as="geometry" />
        </mxCell>
        <mxCell id="4VEDjEmkF4Wl-3KHhdz3-286" value="" style="shape=partialRectangle;html=1;whiteSpace=wrap;connectable=0;top=0;left=0;bottom=0;right=0;overflow=hidden;pointerEvents=1;fontSize=16;strokeColor=light-dark(#000000,#990000);" parent="4VEDjEmkF4Wl-3KHhdz3-285" vertex="1">
          <mxGeometry width="48" height="30" as="geometry">
            <mxRectangle width="48" height="30" as="alternateBounds" />
          </mxGeometry>
        </mxCell>
        <mxCell id="4VEDjEmkF4Wl-3KHhdz3-287" value="&lt;font style=&quot;font-size: 14px;&quot;&gt;quantity: &lt;b&gt;INTEGER&lt;/b&gt;&lt;/font&gt;" style="shape=partialRectangle;html=1;whiteSpace=wrap;connectable=0;top=0;left=0;bottom=0;right=0;align=left;spacingLeft=6;overflow=hidden;fontSize=16;strokeColor=light-dark(#000000,#990000);" parent="4VEDjEmkF4Wl-3KHhdz3-285" vertex="1">
          <mxGeometry x="48" width="192" height="30" as="geometry">
            <mxRectangle width="192" height="30" as="alternateBounds" />
          </mxGeometry>
        </mxCell>
        <mxCell id="4VEDjEmkF4Wl-3KHhdz3-288" style="edgeStyle=orthogonalEdgeStyle;rounded=0;orthogonalLoop=1;jettySize=auto;html=1;exitX=1;exitY=0.5;exitDx=0;exitDy=0;entryX=1;entryY=0.5;entryDx=0;entryDy=0;endArrow=ERmandOne;endFill=0;startArrow=ERoneToMany;startFill=0;" parent="1" source="4VEDjEmkF4Wl-3KHhdz3-276" target="4VEDjEmkF4Wl-3KHhdz3-261" edge="1">
          <mxGeometry relative="1" as="geometry" />
        </mxCell>
        <mxCell id="4VEDjEmkF4Wl-3KHhdz3-289" style="edgeStyle=orthogonalEdgeStyle;rounded=0;orthogonalLoop=1;jettySize=auto;html=1;exitX=0;exitY=0.5;exitDx=0;exitDy=0;entryX=1;entryY=0.5;entryDx=0;entryDy=0;endArrow=ERmandOne;endFill=0;startArrow=ERoneToMany;startFill=0;" parent="1" source="4VEDjEmkF4Wl-3KHhdz3-279" target="4VEDjEmkF4Wl-3KHhdz3-45" edge="1">
          <mxGeometry relative="1" as="geometry">
            <Array as="points">
              <mxPoint x="680" y="515" />
              <mxPoint x="680" y="410" />
            </Array>
          </mxGeometry>
        </mxCell>
        <object label="Workline_products" уацуа="" id="4VEDjEmkF4Wl-3KHhdz3-304">
          <mxCell style="shape=table;startSize=30;container=1;collapsible=0;childLayout=tableLayout;fixedRows=1;rowLines=0;fontStyle=0;fontSize=16;strokeColor=light-dark(#000000,#4C0099);" parent="1" vertex="1">
            <mxGeometry x="810" y="670" width="200" height="120" as="geometry" />
          </mxCell>
        </object>
        <mxCell id="4VEDjEmkF4Wl-3KHhdz3-305" value="" style="shape=tableRow;horizontal=0;startSize=0;swimlaneHead=0;swimlaneBody=0;top=0;left=0;bottom=0;right=0;collapsible=0;dropTarget=0;points=[[0,0.5],[1,0.5]];portConstraint=eastwest;fontSize=16;strokeColor=light-dark(#000000,#990000);" parent="4VEDjEmkF4Wl-3KHhdz3-304" vertex="1">
          <mxGeometry y="30" width="200" height="30" as="geometry" />
        </mxCell>
        <mxCell id="4VEDjEmkF4Wl-3KHhdz3-306" value="&lt;span style=&quot;font-size: 14px;&quot;&gt;FK&lt;/span&gt;" style="shape=partialRectangle;html=1;whiteSpace=wrap;connectable=0;top=0;left=0;bottom=0;right=0;overflow=hidden;pointerEvents=1;fontSize=16;strokeColor=light-dark(#000000,#990000);" parent="4VEDjEmkF4Wl-3KHhdz3-305" vertex="1">
          <mxGeometry width="40" height="30" as="geometry">
            <mxRectangle width="40" height="30" as="alternateBounds" />
          </mxGeometry>
        </mxCell>
        <mxCell id="4VEDjEmkF4Wl-3KHhdz3-307" value="&lt;font style=&quot;font-size: 14px;&quot;&gt;line_id: &lt;b&gt;INTEGER&lt;/b&gt;&lt;/font&gt;" style="shape=partialRectangle;html=1;whiteSpace=wrap;connectable=0;top=0;left=0;bottom=0;right=0;align=left;spacingLeft=6;overflow=hidden;fontSize=16;strokeColor=light-dark(#000000,#990000);" parent="4VEDjEmkF4Wl-3KHhdz3-305" vertex="1">
          <mxGeometry x="40" width="160" height="30" as="geometry">
            <mxRectangle width="160" height="30" as="alternateBounds" />
          </mxGeometry>
        </mxCell>
        <mxCell id="4VEDjEmkF4Wl-3KHhdz3-308" value="" style="shape=tableRow;horizontal=0;startSize=0;swimlaneHead=0;swimlaneBody=0;top=0;left=0;bottom=0;right=0;collapsible=0;dropTarget=0;points=[[0,0.5],[1,0.5]];portConstraint=eastwest;fontSize=16;strokeColor=light-dark(#000000,#990000);" parent="4VEDjEmkF4Wl-3KHhdz3-304" vertex="1">
          <mxGeometry y="60" width="200" height="30" as="geometry" />
        </mxCell>
        <mxCell id="4VEDjEmkF4Wl-3KHhdz3-309" value="&lt;font style=&quot;font-size: 14px;&quot;&gt;FK&lt;/font&gt;" style="shape=partialRectangle;html=1;whiteSpace=wrap;connectable=0;top=0;left=0;bottom=0;right=0;overflow=hidden;pointerEvents=1;fontSize=16;strokeColor=light-dark(#000000,#990000);" parent="4VEDjEmkF4Wl-3KHhdz3-308" vertex="1">
          <mxGeometry width="40" height="30" as="geometry">
            <mxRectangle width="40" height="30" as="alternateBounds" />
          </mxGeometry>
        </mxCell>
        <mxCell id="4VEDjEmkF4Wl-3KHhdz3-310" value="&lt;font style=&quot;font-size: 14px;&quot;&gt;product_id: &lt;b&gt;INTEGER&lt;/b&gt;&lt;/font&gt;" style="shape=partialRectangle;html=1;whiteSpace=wrap;connectable=0;top=0;left=0;bottom=0;right=0;align=left;spacingLeft=6;overflow=hidden;fontSize=16;strokeColor=light-dark(#000000,#990000);" parent="4VEDjEmkF4Wl-3KHhdz3-308" vertex="1">
          <mxGeometry x="40" width="160" height="30" as="geometry">
            <mxRectangle width="160" height="30" as="alternateBounds" />
          </mxGeometry>
        </mxCell>
        <mxCell id="4VEDjEmkF4Wl-3KHhdz3-311" value="" style="shape=tableRow;horizontal=0;startSize=0;swimlaneHead=0;swimlaneBody=0;top=0;left=0;bottom=0;right=0;collapsible=0;dropTarget=0;points=[[0,0.5],[1,0.5]];portConstraint=eastwest;fontSize=16;strokeColor=light-dark(#000000,#990000);" parent="4VEDjEmkF4Wl-3KHhdz3-304" vertex="1">
          <mxGeometry y="90" width="200" height="30" as="geometry" />
        </mxCell>
        <mxCell id="4VEDjEmkF4Wl-3KHhdz3-312" value="&lt;font style=&quot;font-size: 14px;&quot;&gt;PK&lt;/font&gt;" style="shape=partialRectangle;html=1;whiteSpace=wrap;connectable=0;top=0;left=0;bottom=0;right=0;overflow=hidden;pointerEvents=1;fontSize=16;strokeColor=light-dark(#000000,#990000);" parent="4VEDjEmkF4Wl-3KHhdz3-311" vertex="1">
          <mxGeometry width="40" height="30" as="geometry">
            <mxRectangle width="40" height="30" as="alternateBounds" />
          </mxGeometry>
        </mxCell>
        <mxCell id="4VEDjEmkF4Wl-3KHhdz3-313" value="&lt;span style=&quot;font-size: 14px;&quot;&gt;(line_id, product_id)&lt;/span&gt;" style="shape=partialRectangle;html=1;whiteSpace=wrap;connectable=0;top=0;left=0;bottom=0;right=0;align=left;spacingLeft=6;overflow=hidden;fontSize=16;strokeColor=light-dark(#000000,#990000);" parent="4VEDjEmkF4Wl-3KHhdz3-311" vertex="1">
          <mxGeometry x="40" width="160" height="30" as="geometry">
            <mxRectangle width="160" height="30" as="alternateBounds" />
          </mxGeometry>
        </mxCell>
        <object label="Work_lines" уацуа="" id="4VEDjEmkF4Wl-3KHhdz3-317">
          <mxCell style="shape=table;startSize=30;container=1;collapsible=0;childLayout=tableLayout;fixedRows=1;rowLines=0;fontStyle=0;fontSize=16;strokeColor=light-dark(#000000,#4C0099);" parent="1" vertex="1">
            <mxGeometry x="800" y="870" width="220" height="120" as="geometry" />
          </mxCell>
        </object>
        <mxCell id="4VEDjEmkF4Wl-3KHhdz3-318" value="" style="shape=tableRow;horizontal=0;startSize=0;swimlaneHead=0;swimlaneBody=0;top=0;left=0;bottom=0;right=0;collapsible=0;dropTarget=0;points=[[0,0.5],[1,0.5]];portConstraint=eastwest;fontSize=16;strokeColor=light-dark(#000000,#990000);" parent="4VEDjEmkF4Wl-3KHhdz3-317" vertex="1">
          <mxGeometry y="30" width="220" height="30" as="geometry" />
        </mxCell>
        <mxCell id="4VEDjEmkF4Wl-3KHhdz3-319" value="&lt;font style=&quot;font-size: 14px;&quot;&gt;PK&lt;/font&gt;" style="shape=partialRectangle;html=1;whiteSpace=wrap;connectable=0;top=0;left=0;bottom=0;right=0;overflow=hidden;pointerEvents=1;fontSize=16;strokeColor=light-dark(#000000,#990000);" parent="4VEDjEmkF4Wl-3KHhdz3-318" vertex="1">
          <mxGeometry width="44" height="30" as="geometry">
            <mxRectangle width="44" height="30" as="alternateBounds" />
          </mxGeometry>
        </mxCell>
        <mxCell id="4VEDjEmkF4Wl-3KHhdz3-320" value="&lt;font style=&quot;font-size: 14px;&quot;&gt;line_id: &lt;b&gt;INTEGER&lt;/b&gt;&lt;/font&gt;" style="shape=partialRectangle;html=1;whiteSpace=wrap;connectable=0;top=0;left=0;bottom=0;right=0;align=left;spacingLeft=6;overflow=hidden;fontSize=16;strokeColor=light-dark(#000000,#990000);" parent="4VEDjEmkF4Wl-3KHhdz3-318" vertex="1">
          <mxGeometry x="44" width="176" height="30" as="geometry">
            <mxRectangle width="176" height="30" as="alternateBounds" />
          </mxGeometry>
        </mxCell>
        <mxCell id="4VEDjEmkF4Wl-3KHhdz3-321" value="" style="shape=tableRow;horizontal=0;startSize=0;swimlaneHead=0;swimlaneBody=0;top=0;left=0;bottom=0;right=0;collapsible=0;dropTarget=0;points=[[0,0.5],[1,0.5]];portConstraint=eastwest;fontSize=16;strokeColor=light-dark(#000000,#990000);" parent="4VEDjEmkF4Wl-3KHhdz3-317" vertex="1">
          <mxGeometry y="60" width="220" height="30" as="geometry" />
        </mxCell>
        <mxCell id="4VEDjEmkF4Wl-3KHhdz3-322" value="&lt;font style=&quot;font-size: 14px;&quot;&gt;FK&lt;/font&gt;" style="shape=partialRectangle;html=1;whiteSpace=wrap;connectable=0;top=0;left=0;bottom=0;right=0;overflow=hidden;pointerEvents=1;fontSize=16;strokeColor=light-dark(#000000,#990000);" parent="4VEDjEmkF4Wl-3KHhdz3-321" vertex="1">
          <mxGeometry width="44" height="30" as="geometry">
            <mxRectangle width="44" height="30" as="alternateBounds" />
          </mxGeometry>
        </mxCell>
        <mxCell id="4VEDjEmkF4Wl-3KHhdz3-323" value="&lt;font style=&quot;font-size: 14px;&quot;&gt;country_id: &lt;b&gt;INTEGER&lt;/b&gt;&lt;/font&gt;" style="shape=partialRectangle;html=1;whiteSpace=wrap;connectable=0;top=0;left=0;bottom=0;right=0;align=left;spacingLeft=6;overflow=hidden;fontSize=16;strokeColor=light-dark(#000000,#990000);" parent="4VEDjEmkF4Wl-3KHhdz3-321" vertex="1">
          <mxGeometry x="44" width="176" height="30" as="geometry">
            <mxRectangle width="176" height="30" as="alternateBounds" />
          </mxGeometry>
        </mxCell>
        <mxCell id="4VEDjEmkF4Wl-3KHhdz3-324" value="" style="shape=tableRow;horizontal=0;startSize=0;swimlaneHead=0;swimlaneBody=0;top=0;left=0;bottom=0;right=0;collapsible=0;dropTarget=0;points=[[0,0.5],[1,0.5]];portConstraint=eastwest;fontSize=16;strokeColor=light-dark(#000000,#990000);" parent="4VEDjEmkF4Wl-3KHhdz3-317" vertex="1">
          <mxGeometry y="90" width="220" height="30" as="geometry" />
        </mxCell>
        <mxCell id="4VEDjEmkF4Wl-3KHhdz3-325" value="" style="shape=partialRectangle;html=1;whiteSpace=wrap;connectable=0;top=0;left=0;bottom=0;right=0;overflow=hidden;pointerEvents=1;fontSize=16;strokeColor=light-dark(#000000,#990000);" parent="4VEDjEmkF4Wl-3KHhdz3-324" vertex="1">
          <mxGeometry width="44" height="30" as="geometry">
            <mxRectangle width="44" height="30" as="alternateBounds" />
          </mxGeometry>
        </mxCell>
        <mxCell id="4VEDjEmkF4Wl-3KHhdz3-326" value="&lt;font style=&quot;font-size: 14px;&quot;&gt;name: &lt;b style=&quot;&quot;&gt;VARCHAR&lt;/b&gt;&lt;/font&gt;" style="shape=partialRectangle;html=1;whiteSpace=wrap;connectable=0;top=0;left=0;bottom=0;right=0;align=left;spacingLeft=6;overflow=hidden;fontSize=16;strokeColor=light-dark(#000000,#990000);" parent="4VEDjEmkF4Wl-3KHhdz3-324" vertex="1">
          <mxGeometry x="44" width="176" height="30" as="geometry">
            <mxRectangle width="176" height="30" as="alternateBounds" />
          </mxGeometry>
        </mxCell>
        <mxCell id="4VEDjEmkF4Wl-3KHhdz3-327" style="edgeStyle=orthogonalEdgeStyle;rounded=0;orthogonalLoop=1;jettySize=auto;html=1;exitX=1;exitY=0.5;exitDx=0;exitDy=0;entryX=1;entryY=0.5;entryDx=0;entryDy=0;endArrow=ERmandOne;endFill=0;startArrow=ERoneToMany;startFill=0;" parent="1" source="4VEDjEmkF4Wl-3KHhdz3-321" target="4VEDjEmkF4Wl-3KHhdz3-249" edge="1">
          <mxGeometry relative="1" as="geometry">
            <Array as="points">
              <mxPoint x="1080" y="945" />
              <mxPoint x="1080" y="95" />
            </Array>
          </mxGeometry>
        </mxCell>
        <mxCell id="4VEDjEmkF4Wl-3KHhdz3-328" style="edgeStyle=orthogonalEdgeStyle;rounded=0;orthogonalLoop=1;jettySize=auto;html=1;exitX=0;exitY=0.5;exitDx=0;exitDy=0;entryX=0;entryY=0.5;entryDx=0;entryDy=0;endArrow=ERoneToMany;endFill=0;startArrow=ERmandOne;startFill=0;" parent="1" source="4VEDjEmkF4Wl-3KHhdz3-318" target="4VEDjEmkF4Wl-3KHhdz3-305" edge="1">
          <mxGeometry relative="1" as="geometry" />
        </mxCell>
        <object label="Staff_worklines" уацуа="" id="4VEDjEmkF4Wl-3KHhdz3-329">
          <mxCell style="shape=table;startSize=30;container=1;collapsible=0;childLayout=tableLayout;fixedRows=1;rowLines=0;fontStyle=0;fontSize=16;strokeColor=light-dark(#000000,#CC00CC);" parent="1" vertex="1">
            <mxGeometry x="800" y="1070" width="220" height="120" as="geometry" />
          </mxCell>
        </object>
        <mxCell id="4VEDjEmkF4Wl-3KHhdz3-330" value="" style="shape=tableRow;horizontal=0;startSize=0;swimlaneHead=0;swimlaneBody=0;top=0;left=0;bottom=0;right=0;collapsible=0;dropTarget=0;points=[[0,0.5],[1,0.5]];portConstraint=eastwest;fontSize=16;strokeColor=light-dark(#000000,#990000);" parent="4VEDjEmkF4Wl-3KHhdz3-329" vertex="1">
          <mxGeometry y="30" width="220" height="30" as="geometry" />
        </mxCell>
        <mxCell id="4VEDjEmkF4Wl-3KHhdz3-331" value="&lt;font style=&quot;font-size: 14px;&quot;&gt;FK&lt;/font&gt;" style="shape=partialRectangle;html=1;whiteSpace=wrap;connectable=0;top=0;left=0;bottom=0;right=0;overflow=hidden;pointerEvents=1;fontSize=16;strokeColor=light-dark(#000000,#990000);" parent="4VEDjEmkF4Wl-3KHhdz3-330" vertex="1">
          <mxGeometry width="44" height="30" as="geometry">
            <mxRectangle width="44" height="30" as="alternateBounds" />
          </mxGeometry>
        </mxCell>
        <mxCell id="4VEDjEmkF4Wl-3KHhdz3-332" value="&lt;font style=&quot;font-size: 14px;&quot;&gt;staff_id: &lt;b&gt;INTEGER&lt;/b&gt;&lt;/font&gt;" style="shape=partialRectangle;html=1;whiteSpace=wrap;connectable=0;top=0;left=0;bottom=0;right=0;align=left;spacingLeft=6;overflow=hidden;fontSize=16;strokeColor=light-dark(#000000,#990000);" parent="4VEDjEmkF4Wl-3KHhdz3-330" vertex="1">
          <mxGeometry x="44" width="176" height="30" as="geometry">
            <mxRectangle width="176" height="30" as="alternateBounds" />
          </mxGeometry>
        </mxCell>
        <mxCell id="4VEDjEmkF4Wl-3KHhdz3-333" value="" style="shape=tableRow;horizontal=0;startSize=0;swimlaneHead=0;swimlaneBody=0;top=0;left=0;bottom=0;right=0;collapsible=0;dropTarget=0;points=[[0,0.5],[1,0.5]];portConstraint=eastwest;fontSize=16;strokeColor=light-dark(#000000,#990000);" parent="4VEDjEmkF4Wl-3KHhdz3-329" vertex="1">
          <mxGeometry y="60" width="220" height="30" as="geometry" />
        </mxCell>
        <mxCell id="4VEDjEmkF4Wl-3KHhdz3-334" value="&lt;font style=&quot;font-size: 14px;&quot;&gt;FK&lt;/font&gt;" style="shape=partialRectangle;html=1;whiteSpace=wrap;connectable=0;top=0;left=0;bottom=0;right=0;overflow=hidden;pointerEvents=1;fontSize=16;strokeColor=light-dark(#000000,#990000);" parent="4VEDjEmkF4Wl-3KHhdz3-333" vertex="1">
          <mxGeometry width="44" height="30" as="geometry">
            <mxRectangle width="44" height="30" as="alternateBounds" />
          </mxGeometry>
        </mxCell>
        <mxCell id="4VEDjEmkF4Wl-3KHhdz3-335" value="&lt;font style=&quot;font-size: 14px;&quot;&gt;line_id: &lt;b&gt;INTEGER&lt;/b&gt;&lt;/font&gt;" style="shape=partialRectangle;html=1;whiteSpace=wrap;connectable=0;top=0;left=0;bottom=0;right=0;align=left;spacingLeft=6;overflow=hidden;fontSize=16;strokeColor=light-dark(#000000,#990000);" parent="4VEDjEmkF4Wl-3KHhdz3-333" vertex="1">
          <mxGeometry x="44" width="176" height="30" as="geometry">
            <mxRectangle width="176" height="30" as="alternateBounds" />
          </mxGeometry>
        </mxCell>
        <mxCell id="4VEDjEmkF4Wl-3KHhdz3-336" value="" style="shape=tableRow;horizontal=0;startSize=0;swimlaneHead=0;swimlaneBody=0;top=0;left=0;bottom=0;right=0;collapsible=0;dropTarget=0;points=[[0,0.5],[1,0.5]];portConstraint=eastwest;fontSize=16;strokeColor=light-dark(#000000,#990000);" parent="4VEDjEmkF4Wl-3KHhdz3-329" vertex="1">
          <mxGeometry y="90" width="220" height="30" as="geometry" />
        </mxCell>
        <mxCell id="4VEDjEmkF4Wl-3KHhdz3-337" value="&lt;font style=&quot;font-size: 14px;&quot;&gt;PK&lt;/font&gt;" style="shape=partialRectangle;html=1;whiteSpace=wrap;connectable=0;top=0;left=0;bottom=0;right=0;overflow=hidden;pointerEvents=1;fontSize=16;strokeColor=light-dark(#000000,#990000);" parent="4VEDjEmkF4Wl-3KHhdz3-336" vertex="1">
          <mxGeometry width="44" height="30" as="geometry">
            <mxRectangle width="44" height="30" as="alternateBounds" />
          </mxGeometry>
        </mxCell>
        <mxCell id="4VEDjEmkF4Wl-3KHhdz3-338" value="&lt;span style=&quot;font-size: 14px;&quot;&gt;(staff_id, line_id)&lt;/span&gt;" style="shape=partialRectangle;html=1;whiteSpace=wrap;connectable=0;top=0;left=0;bottom=0;right=0;align=left;spacingLeft=6;overflow=hidden;fontSize=16;strokeColor=light-dark(#000000,#990000);" parent="4VEDjEmkF4Wl-3KHhdz3-336" vertex="1">
          <mxGeometry x="44" width="176" height="30" as="geometry">
            <mxRectangle width="176" height="30" as="alternateBounds" />
          </mxGeometry>
        </mxCell>
        <mxCell id="4VEDjEmkF4Wl-3KHhdz3-339" style="edgeStyle=orthogonalEdgeStyle;rounded=0;orthogonalLoop=1;jettySize=auto;html=1;exitX=1;exitY=0.5;exitDx=0;exitDy=0;entryX=1;entryY=0.5;entryDx=0;entryDy=0;endArrow=ERmandOne;endFill=0;startArrow=ERoneToMany;startFill=0;" parent="1" source="4VEDjEmkF4Wl-3KHhdz3-333" target="4VEDjEmkF4Wl-3KHhdz3-318" edge="1">
          <mxGeometry relative="1" as="geometry" />
        </mxCell>
        <object label="Staff" уацуа="" id="4VEDjEmkF4Wl-3KHhdz3-340">
          <mxCell style="shape=table;startSize=30;container=1;collapsible=0;childLayout=tableLayout;fixedRows=1;rowLines=0;fontStyle=0;fontSize=16;strokeColor=light-dark(#000000,#CC00CC);" parent="1" vertex="1">
            <mxGeometry x="1121" y="920" width="240" height="270" as="geometry" />
          </mxCell>
        </object>
        <mxCell id="4VEDjEmkF4Wl-3KHhdz3-341" value="" style="shape=tableRow;horizontal=0;startSize=0;swimlaneHead=0;swimlaneBody=0;top=0;left=0;bottom=0;right=0;collapsible=0;dropTarget=0;points=[[0,0.5],[1,0.5]];portConstraint=eastwest;fontSize=16;strokeColor=light-dark(#000000,#990000);" parent="4VEDjEmkF4Wl-3KHhdz3-340" vertex="1">
          <mxGeometry y="30" width="240" height="30" as="geometry" />
        </mxCell>
        <mxCell id="4VEDjEmkF4Wl-3KHhdz3-342" value="&lt;font style=&quot;font-size: 14px;&quot;&gt;PK&lt;/font&gt;" style="shape=partialRectangle;html=1;whiteSpace=wrap;connectable=0;top=0;left=0;bottom=0;right=0;overflow=hidden;pointerEvents=1;fontSize=16;strokeColor=light-dark(#000000,#990000);" parent="4VEDjEmkF4Wl-3KHhdz3-341" vertex="1">
          <mxGeometry width="48" height="30" as="geometry">
            <mxRectangle width="48" height="30" as="alternateBounds" />
          </mxGeometry>
        </mxCell>
        <mxCell id="4VEDjEmkF4Wl-3KHhdz3-343" value="&lt;font style=&quot;font-size: 14px;&quot;&gt;staff_id: &lt;b&gt;INTEGER&lt;/b&gt;&lt;/font&gt;" style="shape=partialRectangle;html=1;whiteSpace=wrap;connectable=0;top=0;left=0;bottom=0;right=0;align=left;spacingLeft=6;overflow=hidden;fontSize=16;strokeColor=light-dark(#000000,#990000);" parent="4VEDjEmkF4Wl-3KHhdz3-341" vertex="1">
          <mxGeometry x="48" width="192" height="30" as="geometry">
            <mxRectangle width="192" height="30" as="alternateBounds" />
          </mxGeometry>
        </mxCell>
        <mxCell id="4VEDjEmkF4Wl-3KHhdz3-344" value="" style="shape=tableRow;horizontal=0;startSize=0;swimlaneHead=0;swimlaneBody=0;top=0;left=0;bottom=0;right=0;collapsible=0;dropTarget=0;points=[[0,0.5],[1,0.5]];portConstraint=eastwest;fontSize=16;strokeColor=light-dark(#000000,#990000);" parent="4VEDjEmkF4Wl-3KHhdz3-340" vertex="1">
          <mxGeometry y="60" width="240" height="30" as="geometry" />
        </mxCell>
        <mxCell id="4VEDjEmkF4Wl-3KHhdz3-345" value="" style="shape=partialRectangle;html=1;whiteSpace=wrap;connectable=0;top=0;left=0;bottom=0;right=0;overflow=hidden;pointerEvents=1;fontSize=16;strokeColor=light-dark(#000000,#990000);" parent="4VEDjEmkF4Wl-3KHhdz3-344" vertex="1">
          <mxGeometry width="48" height="30" as="geometry">
            <mxRectangle width="48" height="30" as="alternateBounds" />
          </mxGeometry>
        </mxCell>
        <mxCell id="4VEDjEmkF4Wl-3KHhdz3-346" value="&lt;font style=&quot;font-size: 14px;&quot;&gt;name: &lt;b&gt;VARCHAR&lt;/b&gt;&lt;/font&gt;" style="shape=partialRectangle;html=1;whiteSpace=wrap;connectable=0;top=0;left=0;bottom=0;right=0;align=left;spacingLeft=6;overflow=hidden;fontSize=16;strokeColor=light-dark(#000000,#990000);" parent="4VEDjEmkF4Wl-3KHhdz3-344" vertex="1">
          <mxGeometry x="48" width="192" height="30" as="geometry">
            <mxRectangle width="192" height="30" as="alternateBounds" />
          </mxGeometry>
        </mxCell>
        <mxCell id="4VEDjEmkF4Wl-3KHhdz3-350" value="" style="shape=tableRow;horizontal=0;startSize=0;swimlaneHead=0;swimlaneBody=0;top=0;left=0;bottom=0;right=0;collapsible=0;dropTarget=0;points=[[0,0.5],[1,0.5]];portConstraint=eastwest;fontSize=16;strokeColor=light-dark(#000000,#990000);" parent="4VEDjEmkF4Wl-3KHhdz3-340" vertex="1">
          <mxGeometry y="90" width="240" height="30" as="geometry" />
        </mxCell>
        <mxCell id="4VEDjEmkF4Wl-3KHhdz3-351" value="" style="shape=partialRectangle;html=1;whiteSpace=wrap;connectable=0;top=0;left=0;bottom=0;right=0;overflow=hidden;pointerEvents=1;fontSize=16;strokeColor=light-dark(#000000,#990000);" parent="4VEDjEmkF4Wl-3KHhdz3-350" vertex="1">
          <mxGeometry width="48" height="30" as="geometry">
            <mxRectangle width="48" height="30" as="alternateBounds" />
          </mxGeometry>
        </mxCell>
        <mxCell id="4VEDjEmkF4Wl-3KHhdz3-352" value="&lt;font style=&quot;font-size: 14px;&quot;&gt;surname: &lt;b&gt;VARCHAR&lt;/b&gt;&lt;/font&gt;" style="shape=partialRectangle;html=1;whiteSpace=wrap;connectable=0;top=0;left=0;bottom=0;right=0;align=left;spacingLeft=6;overflow=hidden;fontSize=16;strokeColor=light-dark(#000000,#990000);" parent="4VEDjEmkF4Wl-3KHhdz3-350" vertex="1">
          <mxGeometry x="48" width="192" height="30" as="geometry">
            <mxRectangle width="192" height="30" as="alternateBounds" />
          </mxGeometry>
        </mxCell>
        <mxCell id="4VEDjEmkF4Wl-3KHhdz3-353" value="" style="shape=tableRow;horizontal=0;startSize=0;swimlaneHead=0;swimlaneBody=0;top=0;left=0;bottom=0;right=0;collapsible=0;dropTarget=0;points=[[0,0.5],[1,0.5]];portConstraint=eastwest;fontSize=16;strokeColor=light-dark(#000000,#990000);" parent="4VEDjEmkF4Wl-3KHhdz3-340" vertex="1">
          <mxGeometry y="120" width="240" height="30" as="geometry" />
        </mxCell>
        <mxCell id="4VEDjEmkF4Wl-3KHhdz3-354" value="" style="shape=partialRectangle;html=1;whiteSpace=wrap;connectable=0;top=0;left=0;bottom=0;right=0;overflow=hidden;pointerEvents=1;fontSize=16;strokeColor=light-dark(#000000,#990000);" parent="4VEDjEmkF4Wl-3KHhdz3-353" vertex="1">
          <mxGeometry width="48" height="30" as="geometry">
            <mxRectangle width="48" height="30" as="alternateBounds" />
          </mxGeometry>
        </mxCell>
        <mxCell id="4VEDjEmkF4Wl-3KHhdz3-355" value="&lt;font style=&quot;font-size: 14px;&quot;&gt;patronymic: &lt;b&gt;VARCHAR&lt;/b&gt;&lt;/font&gt;" style="shape=partialRectangle;html=1;whiteSpace=wrap;connectable=0;top=0;left=0;bottom=0;right=0;align=left;spacingLeft=6;overflow=hidden;fontSize=16;strokeColor=light-dark(#000000,#990000);" parent="4VEDjEmkF4Wl-3KHhdz3-353" vertex="1">
          <mxGeometry x="48" width="192" height="30" as="geometry">
            <mxRectangle width="192" height="30" as="alternateBounds" />
          </mxGeometry>
        </mxCell>
        <mxCell id="4VEDjEmkF4Wl-3KHhdz3-356" value="" style="shape=tableRow;horizontal=0;startSize=0;swimlaneHead=0;swimlaneBody=0;top=0;left=0;bottom=0;right=0;collapsible=0;dropTarget=0;points=[[0,0.5],[1,0.5]];portConstraint=eastwest;fontSize=16;strokeColor=light-dark(#000000,#990000);" parent="4VEDjEmkF4Wl-3KHhdz3-340" vertex="1">
          <mxGeometry y="150" width="240" height="30" as="geometry" />
        </mxCell>
        <mxCell id="4VEDjEmkF4Wl-3KHhdz3-357" value="" style="shape=partialRectangle;html=1;whiteSpace=wrap;connectable=0;top=0;left=0;bottom=0;right=0;overflow=hidden;pointerEvents=1;fontSize=16;strokeColor=light-dark(#000000,#990000);" parent="4VEDjEmkF4Wl-3KHhdz3-356" vertex="1">
          <mxGeometry width="48" height="30" as="geometry">
            <mxRectangle width="48" height="30" as="alternateBounds" />
          </mxGeometry>
        </mxCell>
        <mxCell id="4VEDjEmkF4Wl-3KHhdz3-358" value="&lt;font style=&quot;font-size: 14px;&quot;&gt;age: &lt;b&gt;INTEGER&lt;/b&gt;&lt;/font&gt;" style="shape=partialRectangle;html=1;whiteSpace=wrap;connectable=0;top=0;left=0;bottom=0;right=0;align=left;spacingLeft=6;overflow=hidden;fontSize=16;strokeColor=light-dark(#000000,#990000);" parent="4VEDjEmkF4Wl-3KHhdz3-356" vertex="1">
          <mxGeometry x="48" width="192" height="30" as="geometry">
            <mxRectangle width="192" height="30" as="alternateBounds" />
          </mxGeometry>
        </mxCell>
        <mxCell id="4VEDjEmkF4Wl-3KHhdz3-359" value="" style="shape=tableRow;horizontal=0;startSize=0;swimlaneHead=0;swimlaneBody=0;top=0;left=0;bottom=0;right=0;collapsible=0;dropTarget=0;points=[[0,0.5],[1,0.5]];portConstraint=eastwest;fontSize=16;strokeColor=light-dark(#000000,#990000);" parent="4VEDjEmkF4Wl-3KHhdz3-340" vertex="1">
          <mxGeometry y="180" width="240" height="30" as="geometry" />
        </mxCell>
        <mxCell id="4VEDjEmkF4Wl-3KHhdz3-360" value="" style="shape=partialRectangle;html=1;whiteSpace=wrap;connectable=0;top=0;left=0;bottom=0;right=0;overflow=hidden;pointerEvents=1;fontSize=16;strokeColor=light-dark(#000000,#990000);" parent="4VEDjEmkF4Wl-3KHhdz3-359" vertex="1">
          <mxGeometry width="48" height="30" as="geometry">
            <mxRectangle width="48" height="30" as="alternateBounds" />
          </mxGeometry>
        </mxCell>
        <mxCell id="4VEDjEmkF4Wl-3KHhdz3-361" value="&lt;font style=&quot;font-size: 14px;&quot;&gt;position: &lt;b&gt;VARCHAR&lt;/b&gt;&lt;/font&gt;" style="shape=partialRectangle;html=1;whiteSpace=wrap;connectable=0;top=0;left=0;bottom=0;right=0;align=left;spacingLeft=6;overflow=hidden;fontSize=16;strokeColor=light-dark(#000000,#990000);" parent="4VEDjEmkF4Wl-3KHhdz3-359" vertex="1">
          <mxGeometry x="48" width="192" height="30" as="geometry">
            <mxRectangle width="192" height="30" as="alternateBounds" />
          </mxGeometry>
        </mxCell>
        <mxCell id="4VEDjEmkF4Wl-3KHhdz3-362" value="" style="shape=tableRow;horizontal=0;startSize=0;swimlaneHead=0;swimlaneBody=0;top=0;left=0;bottom=0;right=0;collapsible=0;dropTarget=0;points=[[0,0.5],[1,0.5]];portConstraint=eastwest;fontSize=16;strokeColor=light-dark(#000000,#990000);" parent="4VEDjEmkF4Wl-3KHhdz3-340" vertex="1">
          <mxGeometry y="210" width="240" height="30" as="geometry" />
        </mxCell>
        <mxCell id="4VEDjEmkF4Wl-3KHhdz3-363" value="" style="shape=partialRectangle;html=1;whiteSpace=wrap;connectable=0;top=0;left=0;bottom=0;right=0;overflow=hidden;pointerEvents=1;fontSize=16;strokeColor=light-dark(#000000,#990000);" parent="4VEDjEmkF4Wl-3KHhdz3-362" vertex="1">
          <mxGeometry width="48" height="30" as="geometry">
            <mxRectangle width="48" height="30" as="alternateBounds" />
          </mxGeometry>
        </mxCell>
        <mxCell id="4VEDjEmkF4Wl-3KHhdz3-364" value="&lt;font style=&quot;font-size: 14px;&quot;&gt;experience_years: &lt;b&gt;INTEGER&lt;/b&gt;&lt;/font&gt;" style="shape=partialRectangle;html=1;whiteSpace=wrap;connectable=0;top=0;left=0;bottom=0;right=0;align=left;spacingLeft=6;overflow=hidden;fontSize=16;strokeColor=light-dark(#000000,#990000);" parent="4VEDjEmkF4Wl-3KHhdz3-362" vertex="1">
          <mxGeometry x="48" width="192" height="30" as="geometry">
            <mxRectangle width="192" height="30" as="alternateBounds" />
          </mxGeometry>
        </mxCell>
        <mxCell id="4VEDjEmkF4Wl-3KHhdz3-365" value="" style="shape=tableRow;horizontal=0;startSize=0;swimlaneHead=0;swimlaneBody=0;top=0;left=0;bottom=0;right=0;collapsible=0;dropTarget=0;points=[[0,0.5],[1,0.5]];portConstraint=eastwest;fontSize=16;strokeColor=light-dark(#000000,#990000);" parent="4VEDjEmkF4Wl-3KHhdz3-340" vertex="1">
          <mxGeometry y="240" width="240" height="30" as="geometry" />
        </mxCell>
        <mxCell id="4VEDjEmkF4Wl-3KHhdz3-366" value="" style="shape=partialRectangle;html=1;whiteSpace=wrap;connectable=0;top=0;left=0;bottom=0;right=0;overflow=hidden;pointerEvents=1;fontSize=16;strokeColor=light-dark(#000000,#990000);" parent="4VEDjEmkF4Wl-3KHhdz3-365" vertex="1">
          <mxGeometry width="48" height="30" as="geometry">
            <mxRectangle width="48" height="30" as="alternateBounds" />
          </mxGeometry>
        </mxCell>
        <mxCell id="4VEDjEmkF4Wl-3KHhdz3-367" value="&lt;font style=&quot;font-size: 14px;&quot;&gt;salary: &lt;b&gt;MONEY&lt;/b&gt;&lt;/font&gt;" style="shape=partialRectangle;html=1;whiteSpace=wrap;connectable=0;top=0;left=0;bottom=0;right=0;align=left;spacingLeft=6;overflow=hidden;fontSize=16;strokeColor=light-dark(#000000,#990000);" parent="4VEDjEmkF4Wl-3KHhdz3-365" vertex="1">
          <mxGeometry x="48" width="192" height="30" as="geometry">
            <mxRectangle width="192" height="30" as="alternateBounds" />
          </mxGeometry>
        </mxCell>
        <mxCell id="4VEDjEmkF4Wl-3KHhdz3-369" style="edgeStyle=orthogonalEdgeStyle;rounded=0;orthogonalLoop=1;jettySize=auto;html=1;exitX=0;exitY=0.5;exitDx=0;exitDy=0;entryX=1;entryY=0.5;entryDx=0;entryDy=0;endArrow=ERoneToMany;endFill=0;startArrow=ERmandOne;startFill=0;" parent="1" source="4VEDjEmkF4Wl-3KHhdz3-341" target="4VEDjEmkF4Wl-3KHhdz3-330" edge="1">
          <mxGeometry relative="1" as="geometry" />
        </mxCell>
        <mxCell id="Xww3v0tDHA8YOL_0oZIG-13" style="edgeStyle=orthogonalEdgeStyle;rounded=0;orthogonalLoop=1;jettySize=auto;html=1;exitX=0;exitY=0.5;exitDx=0;exitDy=0;entryX=0;entryY=0.5;entryDx=0;entryDy=0;endArrow=ERmandOne;endFill=0;startArrow=ERoneToMany;startFill=0;" edge="1" parent="1" source="4VEDjEmkF4Wl-3KHhdz3-80" target="4VEDjEmkF4Wl-3KHhdz3-45">
          <mxGeometry relative="1" as="geometry" />
        </mxCell>
      </root>
    </mxGraphModel>
  </diagram>
</mxfile>
